
        <svg xmlns="http://www.w3.org/2000/svg" xmlns:xlink="http://www.w3.org/1999/xlink" version="1.1" width="3138.7755585550794" 
        height="672.7145376391607" viewBox="0 0 3138.7755585550794 672.7145376391607">
			
			<g transform="scale(6.938777927753974) translate(10, 10)">
				<defs id="SvgjsDefs1013"></defs><g id="SvgjsG1014" featureKey="nameLeftFeature-0" transform="matrix(2.0109957793642397,0,0,2.0109957793642397,-0.482638586699356,14.071179583470187)" fill="#fff4e1"><path d="M5.16 19.76 c-0.02 0 -0.16 -0.02 -0.18 -0.02 c-0.9 -0.56 -1.08 -0.58 -1.46 -0.74 c0 -0.36 -0.4 -0.24 -0.54 -0.46 c0 -0.14 -0.66 -0.36 -0.66 -0.68 c-0.34 -0.04 -0.18 -0.44 -0.44 -0.54 c0.04 -0.06 -0.42 -0.3 -0.42 -0.56 c0 -0.24 -0.52 -0.8 -0.52 -1.02 c0 -0.28 -0.46 -1.04 -0.46 -1.52 c-0.02 0 -0.24 -1.06 -0.24 -1.42 c0 -0.48 0.06 -0.9 0.06 -1.24 c0 0 0.36 -1.28 0.36 -1.46 c-0.02 0 -0.04 -0.02 -0.04 -0.04 c0 -0.1 0.3 -0.28 0.3 -0.62 c0.22 -0.66 -0.1 0.06 0.38 -0.92 c0.26 0 -0.02 -0.14 0.42 -0.58 l0 0.04 c0.02 0 0.02 -0.48 0.32 -0.48 c0 -0.02 0.2 -0.54 0.68 -0.84 c0.04 0 0.1 -0.26 0.18 -0.26 c1.2 -1 0.96 -0.66 1.42 -1.12 l0 0.04 c0.08 0 0.52 -0.32 0.62 -0.32 c0 0 0.4 -0.34 1.02 -0.34 c0.04 0 0.06 0.02 0.06 0.02 c0.1 0 -0.22 -0.24 1.62 -0.24 c0.76 0 0.7 0.16 1.3 0.16 c-0.02 0 -0.02 -0.02 -0.02 -0.02 c0.02 0 0.26 0.22 0.38 0.22 l0.62 0.08 l0.2 0.16 l0 0.04 c0.08 0 0.6 0.24 0.64 0.24 c0.02 0.02 0.02 0.04 0.04 0.04 c0.06 0 0.12 -0.14 0.3 -0.2 c0.5 -0.06 0 -0.32 0.96 -0.32 c-0.2 0.1 0.26 -0.16 0.26 0.32 c0 0.92 0.08 1.52 0.08 2.52 c0 0.16 -0.04 0.24 -0.04 0.34 c0 0.08 0.12 0.38 0.12 1.1 c0 0.32 -0.1 0.18 -0.2 0.28 l-0.52 0 c-0.06 0 -0.36 -0.48 -0.38 -0.6 l0 -0.02 c-0.04 0 -0.1 -0.38 -0.26 -0.56 c-0.02 0 -0.14 -0.64 -0.44 -1.06 c0 -0.04 -0.44 -0.44 -0.44 -0.54 c0.02 0 0.02 0 0.02 -0.02 c0 -0.06 -0.38 -0.28 -0.4 -0.34 c0.02 -0.26 -0.56 -0.36 -0.56 -0.6 c-0.2 0 -0.5 -0.54 -1.56 -0.54 c-1.3 0 -1.64 0.06 -2.08 0.32 c0 0.14 -0.6 0.08 -0.6 0.44 c-0.02 0 -0.22 0.14 -0.26 0.14 c-0.06 0.06 -0.08 0.06 -0.08 0.08 s0.02 0.02 0.02 0.06 l0 0 c-0.04 0 -0.74 1.22 -0.74 1.78 c0 0.08 -0.1 0.54 -0.12 0.56 l-0.06 0.82 l-0.04 0.04 l0 0.42 c-0.06 0 -0.12 0.76 -0.12 0.94 c0 0 0 0.1 0.02 0.28 c0 0 -0.02 0.18 -0.02 0.36 c0 0.2 0 0.46 0.02 0.54 c-0.02 0.04 -0.02 0.08 -0.02 0.12 c0 0.1 0.02 0.32 0.02 0.46 c-0.02 0.02 -0.02 0.06 -0.02 0.12 c0 0.14 0.02 0.36 0.02 0.5 c0 0.26 -0.02 0.26 -0.02 0.4 s0 0.26 0.08 0.4 c0 0.14 0 0.14 -0.02 0.2 l0.02 0.08 c0 0.24 0.02 0.36 -0.02 0.4 c0.06 1.82 0.42 3.14 0.72 3.28 c0 0.14 -0.16 0.1 0.72 0.98 c0 0 0.42 0.48 0.88 0.48 l-0.02 -0.02 c0.02 0 0.24 0.2 0.86 0.2 c1.52 0 1.64 0.04 2.02 -0.34 c0.12 -0.1 0.5 -0.14 0.56 -0.16 c0.34 -0.54 0.36 -0.24 0.56 -0.56 c-0.04 -0.12 0.46 -0.46 0.72 -0.8 c0 0 0.1 -0.62 0.38 -0.88 l-0.02 0.02 l0 -0.02 c0 -0.06 0.4 -0.8 0.48 -0.86 c0 0.04 0 0.04 0.02 0.04 s0.1 -0.7 0.48 -0.7 c0.02 0.02 0.04 0.02 0.04 0.02 c0.06 0 0.08 -0.04 0.16 -0.04 c0.06 0 0.16 0.04 0.36 0.22 c0 1.22 -0.12 1.74 -0.12 2.44 c0 0.1 0.02 0.18 0.02 0.22 l-0.02 1.38 c-0.04 0.16 -0.04 0.44 -0.34 0.44 c-0.94 0 -0.1 -0.04 -1.26 -0.52 c-0.08 0 -0.36 0.14 -0.52 0.14 c0 -0.02 -0.02 -0.02 -0.04 -0.02 c-0.1 0 -0.36 0.38 -0.56 0.38 c0.04 0 -1.18 0.02 -1.44 0.24 c-0.18 0 -0.34 -0.04 -0.56 -0.04 c0 0.08 -0.5 0 -0.48 0.08 c-0.86 0 -1.16 -0.24 -1.62 -0.24 c-0.22 0 -0.54 -0.02 -0.54 -0.18 z M8.04 19.98 c-0.02 0 -0.04 0.02 -0.04 0.04 s0.02 0.04 0.04 0.04 l0 -0.08 z M8 19.94 c-0.02 0 -0.04 0.02 -0.04 0.04 s0.02 0.04 0.04 0.04 s0.02 -0.02 0.02 -0.04 s0 -0.04 -0.02 -0.04 z M6.2 19.92 l0.06 0.02 l0.02 -0.02 l-0.08 0 z M5.8 19.82 c-0.02 0 -0.02 0.02 -0.02 0.04 s0 0.04 0.02 0.04 s0.02 -0.02 0.02 -0.04 s0 -0.04 -0.02 -0.04 z M5.16 19.6 l0 0.04 l0.02 0 z M12.2 19.54 c-0.02 0 -0.02 0.02 -0.02 0.02 l0.04 0 c0 0.02 0 -0.02 -0.02 -0.02 z M12.32 17.2 c0 0 0 -0.02 -0.02 -0.02 c0 0 -0.04 0.02 -0.04 0.04 c0.06 0 0.06 0 0.06 -0.02 z M12.36 17.12 c0 -0.02 -0.02 -0.02 -0.02 -0.02 c-0.02 0 -0.02 0 -0.02 0.02 s0 0.04 0.02 0.04 c0 0 0.02 -0.02 0.02 -0.04 z M1.38 16.22 c-0.02 -0.02 -0.08 0.04 -0.08 0.1 c0.1 0 0.08 -0.02 0.08 -0.1 z M12.4 15.52 c0 0.02 -0.02 0.04 -0.02 0.08 s0.02 0.08 0.06 0.08 l0.04 -0.04 c0 -0.06 0.02 -0.12 -0.08 -0.12 z M11.92 15.52 c0 0 0.04 0.1 0.08 0.12 c0 -0.06 0 -0.16 0.2 -0.16 c-0.02 -0.02 -0.02 -0.04 -0.06 -0.04 c-0.1 0 -0.14 0.08 -0.22 0.08 z M0.98 15.059999999999999 l0.04 -0.02 z M0.66 14.18 c-0.06 0 -0.04 0.16 -0.04 0.2 s0 0.04 0.02 0.04 c0.04 0 0.08 -0.02 0.08 -0.04 l0 -0.16 s-0.04 -0.04 -0.06 -0.04 z M0.56 13.98 c0.04 0 0.02 0.04 0.12 0.04 c0 0 0.02 0 0.08 -0.02 c-0.04 -0.02 -0.16 -0.02 -0.2 -0.02 z M0.62 12.379999999999999 c0 -0.02 0 -0.02 -0.02 -0.02 l0 0.06 c0.02 0 0.02 -0.02 0.02 -0.04 z M0.6 11.52 l0.02 0.04 c0.04 -0.02 0.06 -0.02 0.06 -0.08 z M0.88 10.26 c-0.1 0 -0.1 0.06 -0.1 0.08 c0.06 -0.02 0.12 -0.04 0.14 -0.08 l-0.04 0 z M0.94 10.02 c-0.02 0 -0.02 0 -0.02 0.02 c0 0 0 0.02 0.02 0.02 s0.02 -0.02 0.02 -0.02 c0 -0.02 0 -0.02 -0.02 -0.02 z M0.94 9.78 c-0.02 0 -0.02 0.02 -0.02 0.04 s0 0.02 0.02 0.02 s0.02 0 0.02 -0.02 s0 -0.04 -0.02 -0.04 z M2.82 6.84 c-0.02 0 -0.02 0.02 -0.02 0.02 c0 0.04 0.06 0.12 0.1 0.12 l0 -0.22 c-0.08 0 -0.08 0.02 -0.08 0.08 z M10.98 6.779999999999999 c-0.02 0 -0.02 0.02 -0.02 0.04 c0 0 0 0.02 0.02 0.02 s0.02 -0.02 0.02 -0.02 c0 -0.02 0 -0.04 -0.02 -0.04 z M12.12 5.619999999999999 l0.04 0.04 l0 -0.04 l-0.04 0 z M5.1 5.16 c-0.08 0.04 -0.06 0.08 -0.06 0.12 c0.08 -0.02 0.06 -0.06 0.06 -0.12 z M5.5 5.199999999999999 c0 0.04 0 0.06 0.02 0.06 l0.02 -0.02 l0 -0.04 l-0.04 0 z M5.74 5.24 c0 -0.02 -0.02 -0.02 -0.02 -0.02 c-0.02 0 -0.02 0 -0.02 0.02 s0 0.04 0.02 0.04 c0 0 0.02 -0.02 0.02 -0.04 z M5.38 5.08 c-0.02 0 -0.04 0.02 -0.04 0.04 s0.02 0.04 0.04 0.04 s0.02 -0.02 0.02 -0.04 s0 -0.04 -0.02 -0.04 z M8.48 4.84 c0.02 0.06 0.04 0.1 0.1 0.12 c-0.02 0 0 -0.12 -0.02 -0.14 c-0.06 0 -0.06 0.02 -0.08 0.02 z M5.78 4.84 l0 0.04 l0.02 0 z M5.9 4.82 c-0.02 0 -0.02 0.02 -0.02 0.04 c0 0 0 0.02 0.02 0.02 s0.02 -0.02 0.02 -0.02 c0 -0.02 0 -0.04 -0.02 -0.04 z M6.2 4.82 l0 0.02 l0.12 0 z M25.458000000000002 19.98 c-0.12 0 -0.32 -0.06 -0.32 -0.3 c0 -0.28 0.28 -0.2 0.42 -0.28 l1.3 0 c0.22 -0.24 0.2 -0.18 0.2 -0.58 c0 -0.22 -0.04 -1.9 -0.04 -2.12 c0 -1 0.02 -1.82 0.08 -2.64 c0 -0.06 0 -0.06 -0.04 -0.12 l0 -1.08 c-0.1 -0.1 -0.14 -0.34 -0.22 -0.34 c-0.72 0 -0.9 0.04 -1.26 0.04 c-0.08 0 -0.86 -0.04 -1.04 -0.04 l0 -0.04 l-0.28 0 l0.06 0.04 c-0.66 0 -0.58 0.06 -1.18 0.06 c-0.16 0 -0.78 -0.02 -0.98 -0.02 l-0.64 0 l-0.08 0.18 c0 1.06 -0.02 2.34 -0.08 2.76 c0 0.08 0.08 0.16 0.08 0.36 l0 3.36 c0 0.08 0.14 0.2 0.24 0.32 c0.44 0 0.94 -0.12 1.22 -0.12 c0.12 0 0.46 -0.02 0.46 0.36 c-0.04 -0.02 -0.06 -0.06 -0.06 -0.12 c-0.02 0 -0.1 0.08 -0.1 0.22 c0.04 0 0.06 0 0.1 -0.02 c-0.02 0.12 -0.14 0.12 -0.24 0.12 l0 -0.12 c-0.06 0 -0.14 0.08 -0.18 0.12 c-0.52 0 -4.32 0.06 -5.94 0.06 c-0.1 0 -0.24 -0.02 -0.32 -0.16 l0 -0.26 l-0.02 0 c0 -0.02 0.48 -0.22 0.48 -0.22 c0.3 0 0.48 0.1 1.1 0.1 c0.34 0 0.22 -0.14 0.36 -0.2 c0 -1.16 -0.04 -1.36 -0.04 -1.68 c0 -0.94 0.04 -1.28 0.04 -1.7 c0 -0.3 -0.04 -1.02 -0.04 -1.48 c0 -0.04 0.04 -0.28 0.04 -0.32 c0 -0.26 -0.04 -0.56 -0.04 -1.26 l0.04 -0.06 c0 -0.08 -0.04 -0.16 -0.04 -0.24 l0 -3.06 l0.06 -0.04 c0 -0.02 -0.06 -0.1 -0.06 -0.26 l0 -3.38 s-0.06 -0.04 -0.06 -0.08 c0 -0.2 -0.78 -0.18 -0.92 -0.2 c-0.02 0 -0.28 0.04 -0.38 0.04 c-0.42 0 -0.54 -0.08 -0.6 -0.22 c0 -0.16 -0.1 -0.36 0.38 -0.44 l6.22 0 c0.02 0.02 0.22 0 0.22 0.32 c0 0.16 -0.26 0.38 -0.34 0.38 l-0.04 0.02 s0.02 0 0.02 -0.02 c0 0 -0.08 -0.08 -0.6 -0.08 l-0.68 0 c-0.36 0 -0.36 0.94 -0.36 0.98 c0 0.06 0.04 0.16 0.04 0.28 c-0.04 0.12 -0.04 0.2 -0.04 0.28 c0 0.24 0.04 0.34 0.04 0.5 c-0.04 0.06 -0.04 0.12 -0.04 0.14 c0 0.08 0.04 0.16 0.04 0.22 l0 2.48 c0 0.1 -0.06 0.36 -0.06 0.36 c0 0.1 0.06 0.34 0.06 0.44 c-0.04 0.06 -0.04 0.08 -0.04 0.1 s0.06 -0.02 0.06 0.02 c0 0.08 -0.08 0.22 -0.08 0.36 c0 0.16 0.1 0.32 0.46 0.32 c1.18 0 2.06 -0.08 3.06 -0.08 c0 0 0.12 0.02 0.14 0.02 l1.2 0 c0.06 0 0.14 0.06 0.26 0.06 c0.18 0 0.56 -0.06 0.56 -0.36 c0 -1.26 -0.04 -1.42 -0.04 -2.06 c0 -0.12 0.04 -0.3 0.04 -0.5 c0 -0.6 -0.04 -1 -0.04 -1.44 l0.02 -0.14 s-0.02 -0.16 -0.02 -0.22 c0 -0.36 0.02 -0.5 0.02 -1.06 l-0.02 0.02 c-0.02 -0.06 0.12 -0.74 -0.3 -0.74 c-0.04 0 -0.1 0.02 -0.14 0.02 c-0.2 0 -0.56 -0.04 -0.54 -0.04 c-0.14 0 -0.26 0.04 -0.36 0.04 c-0.56 0 -0.6 -0.3 -0.6 -0.3 c0 -0.2 0.34 -0.4 0.9 -0.4 c0.02 0.02 -0.02 -0.02 0.22 0.04 c0.34 0 0.34 0.02 0.38 -0.04 c0.24 0 0.46 0.06 0.7 0.06 c0.04 0 0.08 -0.02 0.14 -0.06 c0.04 0 0.14 0.04 0.18 0.04 l1.72 0 c0.08 0 0.28 -0.04 0.36 -0.06 c0.04 0 0.04 0.06 0.04 0.06 l0.96 0 l0.06 -0.04 c0.3 0.08 0.76 0.04 0.94 0.08 l0.12 0.12 c0 0.3 0.04 0.66 -0.64 0.66 c0 -0.12 -1.16 -0.16 -1.16 -0.16 l0 0 c0 0.02 0.02 -0.04 -0.02 -0.04 c-0.06 0 -0.1 0.24 -0.18 1.8 c0 0.08 0.04 0.12 0.04 0.24 c0 0.06 0 0.1 -0.04 0.14 c0 0.02 0.04 0.1 0.04 0.14 l0.04 1.08 l0 8.12 c0 0.04 0.04 0.26 0.04 0.28 c0 0.06 -0.04 0.14 -0.04 0.4 c0 0.08 0 0.44 0.04 0.54 l0 0.1 c0 1 0.1 1.08 0.48 1.08 c0.1 0 0.22 -0.02 0.34 -0.02 c0.06 0 0.16 0.02 0.26 0.02 c0.12 0 0.24 -0.02 0.3 -0.08 c0.48 0.1 0.54 0.2 0.54 0.48 c0 0.12 -0.06 0.3 -0.52 0.3 c-0.68 0 -3.36 -0.14 -5.82 -0.14 z M16.778000000000002 19.92 l-0.02 -0.04 z M17.518 19.88 l0 0.04 l0.32 0 c0 -0.1 -0.1 -0.16 -0.16 -0.16 c-0.06 0.06 -0.12 0.14 -0.16 0.12 z M22.818 19.88 l0.06 0.04 c-0.02 0 -0.04 -0.02 -0.06 -0.04 z M26.838 19.88 l0 0.04 l0.02 -0.04 l-0.02 0 z M22.258000000000003 19.76 c0 0.14 0.06 0.12 0.08 0.16 l0 -0.18 c-0.04 0 -0.06 0 -0.08 0.02 z M26.218000000000004 19.86 l0 0.02 l0.04 0 z M26.978 19.86 l0 0.02 l0.02 0 z M25.758000000000003 19.78 l0 0.08 c0.02 -0.02 0.04 -0.04 0.04 -0.08 l-0.04 0 z M18.038 19.74 c0.1 0 0.16 0.02 0.26 0.08 c-0.04 0 0.1 0 0.1 -0.04 s-0.2 -0.1 -0.36 -0.12 l0 0.08 z M25.258000000000003 19.62 l-0.04 0.12 l0.04 0 l0 -0.12 z M16.818 19.58 c-0.02 0 -0.04 0.02 -0.04 0.04 s0.02 0.04 0.04 0.04 s0.02 -0.02 0.02 -0.04 s0 -0.04 -0.02 -0.04 z M27.558 19.58 l-0.04 0 c0 0.02 0 0.04 0.02 0.04 c0 0 0.02 -0.02 0.02 -0.04 z M18.898000000000003 13.96 c-0.02 0 -0.04 0.02 -0.04 0.04 c0 0 0.02 0.02 0.04 0.02 l0.02 -0.02 c0 -0.02 -0.02 -0.04 -0.02 -0.04 z M20.778000000000002 12.86 c-0.04 0 -0.06 0 -0.06 0.04 l0.06 0 l0 -0.04 z M18.658 11.5 c-0.02 0 -0.04 0.02 -0.04 0.04 s0.02 0.04 0.04 0.04 s0.02 -0.02 0.02 -0.04 s0 -0.04 -0.02 -0.04 z M18.578000000000003 9.5 l0.02 0 l-0.04 0 s-0.02 0 0.02 0 z M20.538 9.42 c0 0.02 -0.02 0.02 -0.02 0.04 s0.02 0.02 0.04 0.04 l0.02 -0.08 l-0.04 0 z M18.658 8 l0 0.04 l0.02 0.02 c0.02 0 0.04 -0.02 0.06 -0.06 l-0.08 0 z M18.618000000000002 7.66 l0.04 0.02 l0.04 -0.02 l-0.08 0 z M27.438000000000002 7.539999999999999 c-0.02 0 -0.02 0.02 -0.02 0.04 s0 0.04 0.02 0.04 s0.02 -0.02 0.02 -0.04 s0 -0.04 -0.02 -0.04 z M18.018 5.359999999999999 c0 0.02 0 0.04 0.02 0.06 c0.04 -0.02 0.04 -0.06 0.04 -0.08 c-0.04 0 -0.06 0.02 -0.06 0.02 z M29.718000000000004 5.359999999999999 l0 0.02 l0.02 0 c0 -0.02 0 -0.02 -0.02 -0.02 z M27.218000000000004 5.359999999999999 l-0.08 -0.02 z M30.478 5.34 c-0.02 0 -0.04 0.02 -0.04 0.02 s0.02 0.02 0.04 0.02 l0.02 -0.02 z M16.858 5.1 c-0.16 0 -0.16 0.08 -0.16 0.24 c0 0 0.16 0 0.16 -0.24 z M31.538000000000004 5.140000000000001 l0 0.16 l0.1 0 c0 -0.14 -0.12 -0.16 -0.1 -0.16 z M18.198 5.24 c0 0 -0.02 0.02 -0.02 0.04 l0.02 0.02 c0.02 0 0.02 -0.02 0.02 -0.02 c0 -0.02 0 -0.04 -0.02 -0.04 z M21.798000000000002 5.140000000000001 c0.02 0.04 0.04 0.08 0.04 0.12 c0.1 0 0.08 0 0.12 -0.02 c0 -0.08 -0.06 -0.1 -0.1 -0.1 l-0.06 0 z M26.478 5.18 c0 0 -0.02 0 -0.02 0.02 s0.02 0.04 0.02 0.04 c0.02 0 0.02 -0.02 0.02 -0.04 s0 -0.02 -0.02 -0.02 z M31.218000000000004 5 c0 0.02 0 0.18 0.1 0.24 c0 -0.04 0.02 -0.14 0.02 -0.24 l-0.12 0 z M25.258000000000003 5.08 l0 0.1 c0.04 -0.02 0.04 -0.06 0.04 -0.1 l-0.04 0 z M28.058 5.140000000000001 c-0.02 0 -0.02 0.02 -0.02 0.02 c0 0.02 0 0.02 0.02 0.02 s0.02 0 0.02 -0.02 c0 0 0 -0.02 -0.02 -0.02 z M29.178 5.1 l-0.02 0.02 c0 0.02 0.02 0.02 0.02 0.02 c0.02 0 0.02 0 0.02 -0.02 c0 0 0 -0.02 -0.02 -0.02 z M18.198 5.08 c0 0 -0.02 0.02 -0.02 0.04 l0.02 0.02 c0.02 0 0.02 -0.02 0.02 -0.02 c0 -0.02 0 -0.04 -0.02 -0.04 z M22.618000000000002 5.1 l-0.02 -0.02 c-0.02 0 -0.02 0.02 -0.02 0.02 c0 0.02 0 0.04 0.02 0.04 c0 0 0.02 -0.02 0.02 -0.04 z M21.798000000000002 5.039999999999999 c-0.02 0 -0.04 0.02 -0.04 0.04 c0 0 0.02 0.02 0.04 0.02 l0 -0.06 z M27.218000000000004 5.039999999999999 c-0.02 0 -0.02 0.02 -0.02 0.04 c0 0 0 0.02 0.02 0.02 s0.02 -0.02 0.02 -0.02 c0 -0.02 0 -0.04 -0.02 -0.04 z M30.938000000000002 5.08 c0 -0.02 -0.02 -0.02 -0.04 -0.02 s-0.04 0 -0.04 0.02 s0.02 0.02 0.04 0.02 s0.04 0 0.04 -0.02 z M35.876000000000005 19.82 l0 -0.1 c0.04 -0.04 -0.02 -0.38 0.42 -0.38 c0.34 0 0.4 0.02 0.58 0.02 c0.4 0 0.7 -0.02 0.76 -0.12 l0 -1.7 c0 -0.04 -0.02 -0.18 -0.02 -0.2 l-0.02 0.02 c-0.04 -0.04 0.04 0.18 0.04 -0.54 c0 -1.5 -0.02 -2.06 -0.02 -2.56 c0 -0.32 0 -0.94 0.04 -1.46 c0 -0.04 -0.08 -0.3 -0.08 -0.8 c0 -0.24 0.06 -0.24 0.06 -0.36 c0 -0.32 -0.02 -0.62 -0.02 -0.86 c0 -0.42 0.02 -0.74 0.02 -1.2 c0 -0.12 0.3 -0.1 0.36 -0.16 c0 0 0 -0.1 -0.18 -0.1 c0 0 -0.06 0 -0.12 0.08 c-0.02 0 -0.04 -0.02 -0.06 -0.08 l0 -3.38 c0 -0.26 -0.06 -0.42 -0.32 -0.42 c-0.38 0 -0.46 0.06 -1.14 0.06 c-0.54 0 -0.22 -0.08 -0.52 -0.26 c0 -0.48 1.5 -0.34 1.92 -0.4 l-0.06 0 c0 0.02 1.16 0.08 1.16 0.08 c0.04 0 0.08 0.02 0.12 0.02 c0.24 0 0.34 -0.1 0.52 -0.1 c0.08 0 0.16 0.02 0.26 0.02 c0.06 0 0.22 -0.02 0.32 -0.02 c0.24 0 0.96 0.02 1.18 0.02 c0.16 0 0.28 -0.06 0.6 -0.06 c0.1 0 1.84 0.04 2.06 0.04 c0.4 0 1.06 0.2 1.6 0.2 c0.76 0.08 0.3 0.18 1.06 0.36 c-0.02 0 -0.04 -0.02 -0.04 -0.02 c0 0.02 0.56 0.32 0.56 0.38 c0.24 0.06 0.6 0.56 0.78 0.72 l-0.02 -0.02 s0.54 0.76 0.54 1.44 c0 0.74 0 0.78 -0.16 1.28 c0 0.34 -0.46 0.94 -1.26 1.62 c-0.1 -0.04 -0.22 0.34 -0.58 0.34 c0.06 -0.2 -0.1 0.26 -0.66 0.3 c-0.02 -0.02 -0.04 -0.02 -0.04 -0.02 c-0.1 0 -0.24 0.18 -0.32 0.18 c-0.76 0.2 -1.1 0.12 -1.1 0.42 c0 0 -0.04 0.16 0.12 0.16 c0.22 -0.04 0.58 0.32 0.7 0.32 c0.42 0 0.5 0.38 0.84 0.38 c0.36 0.16 0.5 0.28 0.94 0.74 c0.44 1.3 0.78 0.6 0.78 1.58 c0 0.54 0.18 0.92 0.18 1.46 c0 0.08 -0.04 0.42 -0.04 1.12 c0.04 0.26 0.06 0.78 0.14 0.86 l0 -0.04 c0 0.02 -0.06 0.66 0.64 0.66 c0.48 0 0.7 -0.06 0.84 -0.06 c0 0 0.02 0.02 0.04 0.02 c0.04 0 0.14 -0.04 0.22 -0.04 s0.16 0.02 0.2 0.1 l-0.14 0 c0 0.1 0.06 0.1 0.06 0.14 c0.04 -0.02 0.06 -0.06 0.08 -0.06 l0.02 0 l0 0.26 c-0.06 0 -0.06 -0.06 -0.06 -0.14 c-0.04 0.02 -0.06 0.02 -0.16 0.06 c0 0.04 0.02 0.08 0.16 0.14 c-0.08 0.04 -0.1 0.14 -0.2 0.14 l0 -0.02 s-0.1 0.2 -0.7 0.2 c-0.22 0 -1.58 -0.08 -1.94 -0.1 c0 0.02 0 0.02 -0.02 0.02 c-0.16 0 -0.54 -0.4 -0.86 -0.4 l0.02 0 c0 -0.08 -0.9 -0.5 -0.92 -0.88 l0.02 0.02 c0 -0.02 -0.2 -0.2 -0.2 -0.26 c0 -0.04 0.02 -0.16 0.02 -0.28 c0 -0.06 -0.06 -0.06 -0.16 -0.1 c-0.14 -3.26 -0.44 -4.16 -0.74 -4.6 c-0.06 0.22 0.08 -0.24 -0.38 -0.46 c0 -0.14 -0.62 -0.36 -0.6 -0.44 c-0.04 0 -0.08 0.02 -0.1 0.02 c-0.42 0 -0.4 -0.4 -1.08 -0.4 l-1.08 0 c-0.22 0.46 -0.22 1.04 -0.22 1.32 c0 0.06 0 0.52 0.04 0.56 c0 0.02 -0.02 0.08 -0.06 0.28 c0 0.06 0.04 0.3 0.04 0.46 l0 -0.02 c0 0.12 -0.02 0.56 -0.02 0.7 c0 0.26 0.02 0.32 0.02 0.5 l0 2.32 c0 0.04 0.04 0.16 0.04 0.2 c0 0.06 -0.04 0.18 -0.04 0.26 c0 0.26 0.04 0.3 0.04 0.4 c-0.02 0.02 -0.04 0.02 -0.04 0.04 c0 0.06 0.28 0.1 0.82 0.1 c0.02 0 0.42 -0.04 0.44 -0.04 c0.56 0 0.56 0.04 0.68 0.2 c0 0.36 -0.08 0.42 -0.14 0.42 c-0.02 0 -0.04 -0.02 -0.08 -0.1 c-0.1 0 -0.12 0 -0.12 0.02 c0.16 0.18 -1.94 0.18 -2.16 0.18 l0.04 0 s-0.68 -0.02 -0.94 -0.08 c-0.8 0.08 -2.18 0 -2.74 0.2 c-0.24 0 -0.46 0 -0.46 -0.32 z M48.21600000000001 19.94 c-0.02 0 -0.04 0.02 -0.04 0.04 s0.02 0.04 0.04 0.04 c0 0 0.02 -0.02 0.02 -0.04 s-0.02 -0.04 -0.02 -0.04 z M48.75600000000001 19.76 c-0.14 0 -0.1 0.08 -0.16 0.18 c0 0 0.02 0.02 0.04 0.02 c0.06 0 0.12 -0.1 0.12 -0.2 z M36.916000000000004 19.88 c-0.04 0 -0.1 0 -0.14 0.02 c0.04 0 0.1 0 0.14 -0.02 z M36.956 19.88 l0 0.02 l0.04 0 z M37.676 19.9 l-0.02 -0.02 c-0.02 0 -0.02 0.02 -0.02 0.02 c0 0.02 0 0.04 0.02 0.04 c0 0 0.02 -0.02 0.02 -0.04 z M38.056000000000004 19.86 c-0.02 0.02 -0.04 0.02 -0.04 0.04 c0.02 0 0.06 0 0.08 -0.02 z M41.156000000000006 19.82 l0 0.06 l0.12 0 c-0.04 -0.04 -0.06 -0.06 -0.12 -0.06 z M41.93600000000001 19.86 c-0.02 0 -0.04 0.02 -0.04 0.02 s0.02 0.02 0.04 0.02 s0.02 -0.02 0.02 -0.02 s0 -0.02 -0.02 -0.02 z M48.836000000000006 19.7 c-0.02 0.06 0.08 0.16 0.08 0.18 c0.1 0 0.1 0 0.16 -0.02 c-0.06 -0.18 0 -0.22 -0.16 -0.3 c-0.06 0.04 -0.08 0.02 -0.08 0.14 z M40.876000000000005 19.82 l-0.04 0.04 l0.04 0 l0 -0.04 z M42.21600000000001 19.46 c0 0.18 0.12 0.18 0.12 0.32 l0.04 0 l0 -0.22 c-0.02 -0.04 -0.06 -0.08 -0.16 -0.1 z M36.21600000000001 19.5 l0 0.06 c0 -0.02 0.02 0.18 0.14 0.18 c0.02 0 0.06 -0.04 0.1 -0.08 c-0.02 0.02 -0.16 -0.16 -0.22 -0.16 l-0.02 0 z M36.556000000000004 19.7 c0 -0.02 -0.02 -0.02 -0.02 -0.02 c-0.02 0 -0.02 0 -0.02 0.02 c0 0 0 0.02 0.02 0.02 z M40.916000000000004 19.66 c-0.02 0 -0.02 0.02 -0.02 0.02 c0 0.02 0 0.02 0.02 0.02 s0.02 0 0.02 -0.02 c0 0 0 -0.02 -0.02 -0.02 z M41.536 19.6 l0 0.1 c0.04 -0.02 0.08 -0.04 0.1 -0.08 c-0.04 -0.02 -0.06 -0.02 -0.1 -0.02 z M36.21600000000001 19.36 c-0.02 0 -0.02 0.02 -0.02 0.04 s0 0.04 0.02 0.04 s0.02 -0.02 0.02 -0.04 s0 -0.04 -0.02 -0.04 z M45.43600000000001 18.84 c0.02 0.04 0.04 0.1 0.04 0.1 c0.02 0 0.02 0 0.02 -0.02 l0 -0.08 l-0.06 0 z M39.85600000000001 18.3 l0.08 0.04 c0.04 -0.02 0.04 -0.06 0.04 -0.1 c-0.06 0 -0.08 0.02 -0.12 0.06 z M44.596000000000004 17.5 c0.02 0 0.02 0.02 0.02 0.04 c0 0 0 0.02 -0.02 0.02 s-0.02 -0.02 -0.02 -0.02 c0 -0.02 0 -0.04 0.02 -0.04 z M44.836000000000006 17.48 c0.02 0.02 0.04 0.02 0.08 0.02 c-0.04 -0.02 -0.06 -0.02 -0.08 -0.02 z M37.89600000000001 15.4 c-0.02 0 -0.04 0.02 -0.04 0.04 s0.02 0.04 0.04 0.04 s0.02 -0.02 0.02 -0.04 s0 -0.04 -0.02 -0.04 z M37.736000000000004 14.879999999999999 c-0.02 0 -0.04 0.02 -0.04 0.04 s0.02 0.04 0.04 0.04 s0.02 -0.02 0.02 -0.04 s0 -0.04 -0.02 -0.04 z M44.416000000000004 12.48 c-0.02 0 -0.04 0.02 -0.04 0.02 c0 0.02 0.02 0.04 0.04 0.04 c0 0 0.02 -0.02 0.02 -0.04 z M39.636 12.14 l0 0.08 l0.02 0.02 c0.06 0 0.14 -0.08 0.14 -0.1 l-0.16 0 z M39.676 11.94 c0 0.02 -0.02 0.02 -0.02 0.02 c0 0.02 0.02 0.02 0.08 0.02 c0 0 0.02 0 0.06 -0.02 c-0.02 -0.06 0 -0.08 -0.06 -0.16 c-0.02 0 -0.08 0.12 -0.06 0.14 z M40.516000000000005 10.22 l0 1.02 c0 0.34 0.2 0.4 0.38 0.5 c3.18 -0.08 3.18 -0.52 3.48 -0.82 c-0.02 0 -0.02 -0.02 -0.02 -0.02 c0 -0.1 0.3 -0.3 0.3 -0.44 l-0.02 0 c0 -0.08 0.42 -0.74 0.42 -1.6 c0 -2.04 -0.56 -2.42 -0.64 -2.84 c0 -0.02 -0.6 -0.54 -1.3 -0.54 c-0.44 0 -0.54 0.04 -0.7 0.04 l-1.5 0 c-0.42 0 -0.26 0.2 -0.38 0.42 l0 1.58 l0.04 0.1 c0 0.78 -0.08 1.5 -0.08 2.2 c0 0.04 0 0.1 0.06 0.16 c0 0.04 -0.04 0.1 -0.04 0.24 z M37.89600000000001 9.78 c-0.02 0 -0.04 0.02 -0.04 0.02 l0.04 0 l0.02 0 s0 -0.02 -0.02 -0.02 z M37.836000000000006 9.68 c-0.02 0 -0.02 0.02 -0.02 0.04 c0 0 0 0.02 0.02 0.02 l0.02 -0.02 c0 -0.02 -0.02 -0.04 -0.02 -0.04 z M37.89600000000001 9.58 c-0.02 0 -0.04 0.02 -0.04 0.04 c0 0 0.02 0.02 0.04 0.02 s0.02 -0.02 0.02 -0.02 c0 -0.02 0 -0.04 -0.02 -0.04 z M37.736000000000004 8.42 l0 0.1 l0.04 0 c0 -0.04 0 -0.08 -0.04 -0.1 z M46.75600000000001 6.1 c0.02 0.04 0.08 0.04 0.1 0.04 l0 -0.12 c-0.06 0 -0.1 0 -0.1 0.08 z M45.236000000000004 5.42 c-0.02 0 -0.04 0.02 -0.04 0.04 s0.02 0.02 0.04 0.02 s0.02 0 0.02 -0.02 s0 -0.04 -0.02 -0.04 z M36.956 5.279999999999999 c0.04 0.02 0.08 0.02 0.12 0.02 l-0.08 -0.06 z M38.89600000000001 5.279999999999999 l0 -0.02 c-0.02 0 -0.02 0 -0.02 0.02 s0 0.02 0.02 0.02 l0 -0.02 z M43.57600000000001 5.24 l0.08 0.04 c0.1 0 0.1 -0.04 0.1 -0.14 c0 -0.02 -0.02 -0.02 -0.1 -0.02 c-0.04 0 -0.08 0 -0.08 0.12 z M41.536 5.119999999999999 c0 0.04 -0.02 0.12 0.04 0.12 c0.02 -0.02 0.04 -0.08 0.06 -0.12 l-0.1 0 z M44.336000000000006 5.199999999999999 c-0.02 0 -0.04 0.02 -0.04 0.02 c0 0.02 0.02 0.02 0.04 0.02 s0.02 0 0.02 -0.02 c0 0 0 -0.02 -0.02 -0.02 z M37.25600000000001 5.119999999999999 l0 0.04 c0 -0.02 0.06 0.04 0.1 -0.04 l-0.1 0 z M42.416000000000004 5.119999999999999 c-0.04 0 -0.06 0.02 -0.08 0.04 l0.08 0 l0 -0.04 z M35.876000000000005 5.119999999999999 l0.02 0 l0.48 0 l-0.5 0 z M53.434000000000005 19.68 c0.1 -0.28 0.16 -0.34 0.38 -0.34 c0.66 0 0.8 0.06 1.28 0.06 c0.18 0 0.26 -0.16 0.34 -0.26 l-0.04 -3.08 c0 -0.04 0.04 -0.1 0.04 -0.14 c0 0.02 -0.04 -0.28 -0.04 -0.36 c0 -0.02 -0.02 -0.4 0.04 -0.58 c0 -0.02 -0.04 -0.08 -0.04 -0.12 l0 -1.42 c0.04 -0.04 0.04 -0.1 0.04 -0.14 c0 -0.12 -0.04 -0.18 -0.04 -0.28 c0 0 -0.06 -4.8 -0.06 -6.36 l0.04 -0.08 l0 -0.94 c-0.14 -0.2 -0.6 -0.06 -0.66 -0.16 l-0.12 0.04 l0 0.02 c-0.04 0 -0.16 -0.06 -0.38 -0.06 c-0.04 0 -0.24 0.04 -0.28 0.08 c-0.32 0 -0.54 0.06 -0.54 -0.36 c0 -0.16 0.1 -0.38 0.76 -0.38 c0.08 0 0.26 0.04 0.38 0.04 c0.08 0 1.12 -0.04 1.14 -0.04 c0.14 0 0.38 0.06 0.46 0.06 c0.08 0.02 1.12 -0.08 1.6 -0.08 c0.06 0 0.04 0.18 0.18 0.18 c0 0 0.02 0 0.02 -0.02 s-0.02 -0.06 -0.02 -0.1 c0.22 0 0.44 -0.06 0.76 -0.12 c0.02 0.02 0.1 0.04 0.08 0.06 c0.02 0 0.06 -0.04 0.06 -0.08 c0.02 0 0.12 0.02 0.16 0.06 c0.1 -0.02 0.36 -0.08 0.38 -0.08 c0.78 0 0.82 0.36 0.82 0.56 c0 0.1 -0.14 0.3 -0.24 0.3 c-0.4 0 -1.16 -0.1 -1.34 -0.1 c-0.16 0 -0.24 0.26 -0.26 0.38 l0.02 6.7 c0 0.1 -0.02 0.38 -0.02 0.42 c0 0.02 0.02 -0.02 0.02 0.3 c0 0.7 -0.02 0.98 -0.02 1.36 c0 0.54 0.02 0.48 0.02 0.62 l0 2.32 c0 0.1 -0.06 1.68 0.24 1.74 c0.04 0 0.76 0.02 1.1 -0.02 l0.04 -0.04 l0.36 0 c0.22 0.1 0.26 0.3 0.26 0.38 c0 0.1 -0.16 0.34 -0.22 0.34 c-0.94 0 -2.38 0.06 -2.58 0.06 c0 0 -0.6 -0.04 -0.9 -0.04 c-0.88 0 -2 0.06 -2.64 0.06 c-0.52 0 -0.58 -0.16 -0.58 -0.36 z M53.854000000000006 19.92 c0 -0.02 -0.02 -0.02 -0.04 -0.02 s-0.04 0 -0.04 0.02 s0.02 0.04 0.04 0.04 s0.04 -0.02 0.04 -0.04 z M53.974000000000004 19.88 c0.08 0 0.12 0.04 0.2 0.04 c0.04 0 0.1 0 0.16 -0.04 c-0.14 0 -0.18 -0.14 -0.24 -0.16 c-0.02 0 -0.12 0 -0.12 0.12 l0 0.04 z M54.374 19.88 c-0.02 0 -0.04 0.02 -0.04 0.04 s0.02 0.04 0.04 0.04 c0 0 0.02 -0.02 0.02 -0.04 s-0.02 -0.04 -0.02 -0.04 z M54.874 19.84 l0.04 0.04 c0.1 0 0.12 0 0.16 -0.04 l-0.04 -0.02 c-0.18 0 -0.12 0 -0.16 0.02 z M59.17400000000001 19.68 c-0.12 0.04 -0.1 0.08 -0.1 0.2 c0.1 -0.04 0.08 -0.1 0.12 -0.2 l-0.02 0 z M59.854000000000006 19.68 c-0.14 0 -0.14 0.14 -0.16 0.2 l0.24 0 c0 -0.14 -0.04 -0.2 -0.08 -0.2 z M58.354000000000006 19.82 l-0.06 0.02 c0 0.02 0 0.02 0.02 0.02 z M58.59400000000001 19.84 l-0.04 -0.02 z M60.09400000000001 19.64 l0 0.12 c0.06 0.02 0.1 -0.08 0.1 -0.12 l-0.1 0 z M53.734 19.52 c-0.14 0 -0.14 0.14 -0.14 0.2 c0.08 -0.06 0.2 -0.04 0.22 -0.08 c0 -0.02 0.02 -0.12 -0.08 -0.12 z M55.234 19.66 l0.04 0.06 l0 -0.06 l-0.04 0 z M54.054 19.56 l0 0.04 l0.04 -0.04 l-0.04 0 z M59.654 19.52 c0 0.02 -0.02 0.02 -0.02 0.04 s0.02 0.02 0.06 0.04 l0.04 -0.04 l-0.04 -0.08 c-0.02 0 -0.04 0.02 -0.04 0.04 z M59.974000000000004 19.56 c0.02 0.04 0.06 0.04 0.1 0.04 c0 -0.02 -0.02 -0.06 -0.02 -0.1 z M55.654 19.3 c-0.02 0.02 -0.02 0.02 -0.02 0.04 s0.06 0.02 0.1 0.02 l0 -0.06 l-0.08 0 z M58.014 6.4 c-0.02 0 -0.04 0 -0.04 0.02 l0.04 0 l0.02 0 c0 -0.02 0 -0.02 -0.02 -0.02 z M59.034000000000006 5.32 c-0.02 0 -0.04 0.02 -0.04 0.04 s0.02 0.04 0.04 0.04 s0.02 -0.02 0.02 -0.04 s0 -0.04 -0.02 -0.04 z M53.534000000000006 5.140000000000001 c-0.02 0 -0.04 0.02 -0.04 0.04 c0 0 0.02 0.02 0.04 0.02 s0.02 -0.02 0.02 -0.02 c0 -0.02 0 -0.04 -0.02 -0.04 z M54.67400000000001 5.039999999999999 c-0.02 0 -0.04 0.02 -0.04 0.04 c0 0 0.02 0.02 0.04 0.02 l0 -0.06 z M54.95400000000001 5.039999999999999 c0 0.02 -0.02 0.02 -0.02 0.02 c0 0.02 0.02 0.02 0.06 0.04 l0 -0.06 l-0.04 0 z M53.694 5.02 c-0.08 0 -0.06 0.02 -0.06 0.06 c0.04 0 0.08 0 0.1 -0.04 z M66.19200000000001 19.42 c-0.18 0 -0.28 0.04 -0.4 0.06 c-0.18 0 -0.14 0 -0.16 -0.02 l-0.06 0.02 c0 0.06 0.02 0.06 0.06 0.08 c0 -0.02 -0.06 0.04 -0.1 0.12 l0.02 0 c0 0.02 -0.64 0.52 -0.74 0.52 c-0.46 0 -0.46 -0.54 -0.46 -0.62 c0 -0.04 0 -0.04 0.02 -0.1 c0 -2.24 -0.1 -1.9 -0.1 -3.24 c0 0 0.02 -0.02 0.02 -0.04 c0 -0.06 -0.04 -0.16 -0.04 -0.26 c0 -0.18 0.08 -0.3 0.6 -0.3 c0.06 0 0.14 0.06 0.32 0.38 c0 0.1 0.36 0.4 0.4 0.58 c-0.02 0.02 -0.04 0.04 -0.04 0.06 c0 0.08 0.3 0.2 0.3 0.32 c0 0.02 -0.02 0.04 -0.02 0.04 c0 0.12 0.2 0.22 0.2 0.28 c0.24 0.44 0.26 0.42 0.58 0.74 c0.1 0 0.84 1.32 1.4 1.32 c0.72 0.06 0.86 0.32 1.62 0.32 c0.42 0 0.36 -0.02 0.5 -0.1 c-0.04 0.04 -0.02 0.04 -0.04 0.04 c0 0 0.14 -0.2 0.8 -0.2 c0.3 0 0.88 -0.56 1 -0.64 c0.04 -0.04 0.24 -0.12 0.24 -0.16 c0 -0.12 0.42 -0.7 0.48 -0.76 c-0.02 -0.04 -0.02 -0.08 -0.02 -0.1 c0 -0.3 0.32 0.16 0.32 -1.7 c-0.02 -0.06 -0.08 -0.7 -0.22 -0.82 c-0.06 0 -0.06 -0.46 -0.54 -0.78 c0 -0.02 0.02 -0.12 0.02 -0.16 c-0.78 -0.04 -0.38 -0.44 -0.9 -0.44 c-0.98 0 -0.2 -0.3 -1.26 -0.3 c-0.1 -0.1 -0.98 -0.08 -1.18 -0.2 c-0.04 0 -0.18 0.04 -0.22 0.04 c-0.24 0 -0.04 -0.2 -0.58 -0.2 c-1.82 -0.1 -0.84 -0.44 -1.46 -0.44 l0 -0.04 c0.06 0 0.14 -0.02 0.2 0.04 c0 0 0.1 -0.04 0.1 -0.06 c0 0 -0.04 -0.04 -0.04 -0.06 l-0.62 0 c-0.2 -0.18 -0.18 -0.3 -0.34 -0.34 c0 -0.02 -0.22 0.02 -0.56 -0.44 c0 -0.14 -0.44 -0.66 -0.54 -0.74 c-0.18 -0.94 -0.4 -1.5 -0.4 -2.22 c0.04 -0.22 0 -0.5 0.08 -0.64 l0 0.02 c0.02 0 0.1 -0.68 0.16 -0.64 c-0.02 0 -0.04 -0.02 -0.04 -0.04 c0 -0.16 0.42 -0.6 0.42 -0.76 c-0.02 -0.02 -0.02 -0.04 -0.02 -0.04 c0 -0.14 0.32 -0.28 0.32 -0.34 s0.26 -0.48 0.38 -0.56 c-0.02 0.02 -0.02 0.04 -0.02 0.04 c-0.02 0 0.98 -0.66 1 -0.68 c1.22 -0.2 0.16 -0.54 1.52 -0.54 l1.96 0 c0.04 0 0.46 0 0.66 0.16 c0.82 0.04 0.68 0.52 1.04 0.52 c0.66 0 0.48 -0.04 0.68 -0.24 c-0.08 -0.1 0.54 -0.02 0.6 -0.28 l0.26 0 c0.04 0 0.2 0.16 0.22 0.2 c0.06 2.48 0.18 2.42 0.18 3.72 c0 0.1 -0.18 0.16 -0.26 0.32 l-0.28 0 l0 -0.08 c-0.06 0 -0.48 -0.28 -0.48 -0.5 l0 0.02 c-0.02 0 -0.16 -0.5 -0.38 -0.58 l0.02 0 c0 -0.06 -0.26 -0.26 -0.26 -0.4 c-0.3 -0.44 -0.26 -0.42 -0.5 -0.66 l0.02 0 c0 -0.02 -0.5 -0.32 -0.5 -0.46 c0 -0.3 -0.74 -0.66 -0.9 -0.82 c0.06 -0.12 -0.52 -0.28 -1.1 -0.28 c-0.02 0 -0.04 0.02 -0.06 0.02 c-0.2 0 -0.12 -0.34 -0.18 -0.34 c-0.04 0.04 -0.06 0.04 -0.08 0.08 c-0.02 0 -0.1 -0.02 -0.16 -0.04 c-0.12 0.44 -0.32 0.2 -0.38 0.32 c-0.12 -0.06 -0.04 -0.12 -0.12 -0.14 c-0.42 0.2 -0.3 0.18 -1.22 0.64 c-0.6 1.18 -0.28 -0.28 -0.94 1.52 l0 0.88 l0 -0.02 c0.02 0 0.1 0.78 0.28 0.88 c0.04 0.06 0.3 0.26 0.38 0.42 c0.14 0 0.32 0.52 0.9 0.52 c0.24 0.26 1.18 0.2 2.14 0.44 c0.28 0.08 1.74 0.08 2.08 0.48 l-0.02 0 c0 0.04 0.48 0.08 0.56 0.14 c0 -0.04 0.96 0.56 0.96 0.68 c0 0.02 0 0.02 -0.02 0.02 c0.34 0 0.68 0.76 0.82 0.86 c0.1 0.72 0.38 0.5 0.38 1.06 c0.24 0.76 0.2 0.94 0.2 1.88 c-0.06 0.06 -0.1 0.76 -0.2 0.8 c0 1.02 -0.52 0.96 -0.52 1.4 l-0.26 0.24 c0 0.04 -0.02 0.12 -0.02 0.12 c-0.4 0.36 -0.26 0.42 -0.44 0.5 c-0.06 0 -0.16 0.3 -0.5 0.4 c-0.38 0.58 -0.54 0.12 -0.94 0.7 c-1.8 0 0.04 0.44 -1.96 0.44 c-2.28 0 -1.48 -0.06 -2.22 -0.24 c-0.02 0 -0.02 0.02 -0.04 0.02 c-0.12 0 -0.3 -0.16 -0.46 -0.16 c0 -0.02 -0.3 -0.06 -0.3 -0.1 c0 0.02 0.02 0.02 0.02 0.02 c0 -0.02 -0.28 -0.42 -0.5 -0.42 c-0.04 0 -0.08 0.02 -0.12 0.04 z M69.992 20.14 c-0.02 0 -0.02 0.02 -0.02 0.04 c0 0 0 0.02 0.02 0.02 s0.02 -0.02 0.02 -0.02 c0 -0.02 0 -0.04 -0.02 -0.04 z M68.492 20.1 c-0.02 0 -0.02 0.02 -0.02 0.02 c0 0.02 0 0.02 0.02 0.02 s0.02 0 0.02 -0.02 c0 0 0 -0.02 -0.02 -0.02 z M70.392 20.1 c-0.02 0 -0.04 0.02 -0.04 0.04 s0.02 0.04 0.04 0.04 s0.02 -0.02 0.02 -0.04 s0 -0.04 -0.02 -0.04 z M69.952 20.06 c-0.02 0 -0.04 0.02 -0.04 0.04 s0.02 0.04 0.04 0.04 s0.02 -0.02 0.02 -0.04 s0 -0.04 -0.02 -0.04 z M70.392 20.02 c-0.04 0 -0.06 0 -0.06 0.02 l0.02 0.02 l0.04 0 l0 -0.04 z M68.932 20.02 c-0.02 0 -0.02 0 -0.02 0.02 c0 0 0 0.02 0.02 0.02 s0.02 -0.02 0.02 -0.02 c0 -0.02 0 -0.02 -0.02 -0.02 z M70.392 19.88 l0 0.1 c0.04 -0.02 0.08 -0.06 0.1 -0.1 l-0.1 0 z M70.932 19.82 c-0.18 0 -0.18 0.06 -0.18 0.12 c0.02 0 0.06 -0.02 0.1 -0.04 c0.02 0 0.08 0.02 0.12 0.04 l0.08 -0.04 s0 -0.08 -0.12 -0.08 z M68.552 19.84 l0 0.04 l0.08 0 l0 -0.04 l-0.08 0 z M69.552 19.84 c-0.02 0 -0.02 0.02 -0.02 0.04 c0 0 0 0.02 0.02 0.02 s0.02 -0.02 0.02 -0.02 c0 -0.02 0 -0.04 -0.02 -0.04 z M70.11200000000001 19.84 c-0.02 0 -0.04 0.02 -0.04 0.04 c0 0 0.02 0.02 0.04 0.02 s0.02 -0.02 0.02 -0.02 c0 -0.02 0 -0.04 -0.02 -0.04 z M68.272 19.72 c-0.02 0 -0.04 0 -0.04 0.02 l0.04 0 l0.02 0 c0 -0.02 0 -0.02 -0.02 -0.02 z M67.652 19.66 c-0.02 0 -0.04 0 -0.06 0.02 z M67.592 19.58 c-0.02 0 -0.04 0.02 -0.04 0.04 s0.02 0.04 0.04 0.04 s0.02 -0.02 0.02 -0.04 s0 -0.04 -0.02 -0.04 z M67.652 19.56 c-0.02 0 -0.02 0.02 -0.02 0.04 c0 0 0 0.02 0.02 0.02 s0.02 -0.02 0.02 -0.02 c0 -0.02 0 -0.04 -0.02 -0.04 z M64.792 19.52 c-0.02 0 -0.04 0.02 -0.04 0.04 c0 0 0.02 0.02 0.04 0.02 l0.02 -0.02 c0 -0.02 -0.02 -0.04 -0.02 -0.04 z M67.592 19.52 c-0.02 0 -0.04 0.02 -0.04 0.04 c0 0 0.02 0.02 0.04 0.02 s0.02 -0.02 0.02 -0.02 c0 -0.02 0 -0.04 -0.02 -0.04 z M64.512 19.46 c-0.02 0 -0.04 0.02 -0.04 0.02 c0 0.02 0.02 0.04 0.04 0.04 c0 0 0.02 -0.02 0.02 -0.04 z M67.75200000000001 19.48 l-0.04 0 c0 0.02 0 0.04 0.02 0.04 c0 0 0.02 -0.02 0.02 -0.04 z M71.672 19.46 c-0.02 0 -0.02 0.02 -0.02 0.02 l0.04 0 c0 0.02 0 -0.02 -0.02 -0.02 z M64.512 19.12 l0 -0.08 l0 0.08 z M72.592 19.08 c-0.02 0 -0.04 0.02 -0.04 0.04 l0.06 0 c0 -0.02 -0.02 -0.04 -0.02 -0.04 z M72.872 18.84 l0 0.04 l0.02 0 z M72.812 18.78 c-0.02 0 -0.04 0.02 -0.04 0.04 c0 0 0.02 0.02 0.04 0.02 s0.02 -0.02 0.02 -0.02 c0 -0.02 0 -0.04 -0.02 -0.04 z M72.932 18.8 l0.04 -0.02 z M73.052 18.68 l0 0 l-0.04 0.04 c0.02 -0.02 0.02 -0.04 0.04 -0.04 z M64.572 18.66 c-0.02 0 -0.04 0 -0.04 0.02 c0 0 0.04 0 0.04 -0.02 l0 0 z M64.512 18.46 l0 0.12 l0.02 0 c0 -0.02 0 -0.1 -0.02 -0.12 z M73.672 18.02 c-0.02 0 -0.02 0.02 -0.02 0.02 s0 0.02 0.02 0.02 s0.02 -0.02 0.02 -0.02 s0 -0.02 -0.02 -0.02 z M73.052 16.38 l0.04 0.02 l0.04 -0.02 l-0.08 0 z M64.512 16.06 l-0.04 0 c0 0.02 0 0.04 0.02 0.04 c0 0 0.02 -0.02 0.02 -0.04 z M74.47200000000001 15.719999999999999 l0 -0.02 c-0.02 0 -0.02 0 -0.02 0.02 s0 0.04 0.02 0.04 l0 -0.04 z M66.072 12.34 c-0.02 0 -0.04 0.02 -0.04 0.04 s0.02 0.04 0.04 0.04 s0.02 -0.02 0.02 -0.04 s0 -0.04 -0.02 -0.04 z M65.25200000000001 11.48 c-0.02 0 -0.04 0.02 -0.04 0.04 c0 0 0.02 0.02 0.04 0.02 l0.02 -0.02 c0 -0.02 -0.02 -0.04 -0.02 -0.04 z M71.672 11.28 c-0.02 0 -0.02 0.02 -0.02 0.04 c0 0 0 0.02 0.02 0.02 s0.02 -0.02 0.02 -0.02 c0 -0.02 0 -0.04 -0.02 -0.04 z M65.012 11.2 l0 0.04 l0.04 -0.04 l-0.04 0 z M66.912 11.02 c0 0 -0.02 0 -0.02 0.02 l0.04 0 c0 -0.02 -0.02 -0.02 -0.02 -0.02 z M68.892 10.76 c-0.04 0 -0.14 0.04 -0.14 0.06 s0.02 0.02 0.02 0.02 c0.04 0 0.08 -0.04 0.12 -0.08 z M64.632 10.18 c-0.02 0 -0.04 -0.02 -0.04 0.1 c0 0.02 0.02 0.06 0.02 0.06 c0.02 0 0.04 -0.04 0.04 -0.06 c0 -0.04 -0.02 -0.08 -0.02 -0.1 z M64.572 9.98 c-0.02 0 -0.04 0.02 -0.04 0.04 s0.02 0.04 0.04 0.04 l0 -0.08 z M73.132 6.460000000000001 c-0.02 0 -0.04 0.02 -0.04 0.04 c0 0 0.02 0.02 0.04 0.02 s0.02 -0.02 0.02 -0.02 c0 -0.02 0 -0.04 -0.02 -0.04 z M73.412 6.460000000000001 c-0.02 0 -0.02 0.02 -0.02 0.04 c0 0 0 0.02 0.02 0.02 s0.02 -0.02 0.02 -0.02 c0 -0.02 0 -0.04 -0.02 -0.04 z M73.492 6.460000000000001 c-0.02 0 -0.04 0.02 -0.04 0.04 c0 0 0.02 0.02 0.04 0.02 l0.02 -0.02 c0 -0.02 -0.02 -0.04 -0.02 -0.04 z M69.012 6.02 l0 -0.22 c0.02 -0.02 0.06 -0.04 0.08 -0.06 l0.04 0.04 c0 0.06 -0.08 0.16 -0.08 0.28 z M73.412 5.9399999999999995 c-0.02 0 -0.02 0.02 -0.02 0.04 c0 0 0 0.02 0.02 0.02 s0.02 -0.02 0.02 -0.02 c0 -0.02 0 -0.04 -0.02 -0.04 z M66.852 5.84 c-0.1 0.02 -0.1 0.1 -0.1 0.1 c0.02 -0.02 0.1 -0.06 0.1 -0.08 l0 -0.02 z M66.372 5.74 c0 0.04 0.06 0.06 0.1 0.06 c-0.02 -0.06 -0.1 -0.06 -0.12 -0.06 l0.02 0 z M73.33200000000001 5.779999999999999 c0.02 0.02 0.04 0.02 0.06 0.02 c0.08 0 0.1 -0.06 0.1 -0.12 z M66.69200000000001 5.619999999999999 c-0.06 0 -0.04 0.06 -0.04 0.12 l0.04 0 l0 -0.12 z M70.652 5.4399999999999995 c-0.06 0.1 -0.04 0.18 -0.04 0.26 c0.08 -0.02 0.1 -0.12 0.1 -0.22 c-0.02 -0.02 -0.02 -0.04 -0.06 -0.04 z M66.69200000000001 5.52 c-0.02 0 -0.04 0 -0.04 0.02 l0.04 0 l0.02 0 c0 -0.02 0 -0.02 -0.02 -0.02 z M73.132 5.48 c0 -0.02 -0.02 -0.02 -0.06 -0.02 c-0.02 0 -0.04 0 -0.04 0.02 s0.02 0.04 0.04 0.04 c0.04 0 0.06 -0.02 0.06 -0.04 z M73.212 5.42 c-0.02 0 -0.04 0.02 -0.04 0.02 l0.02 0 l0.02 0 l0 -0.02 z M71.232 5.42 l-0.02 -0.02 z M69.992 5.4 c0 -0.02 -0.02 -0.02 -0.02 -0.02 s-0.02 0 -0.02 0.02 s0.02 0.02 0.02 0.02 s0.02 0 0.02 -0.02 z M72.712 5.4 c0 -0.02 -0.02 -0.02 -0.02 -0.02 c-0.02 0 -0.02 0 -0.02 0.02 s0 0.02 0.02 0.02 c0 0 0.02 0 0.02 -0.02 z M72.97200000000001 5.359999999999999 c-0.02 0 -0.04 0.02 -0.04 0.04 c0 0 0.02 0.02 0.04 0.02 s0.02 -0.02 0.02 -0.02 c0 -0.02 0 -0.04 -0.02 -0.04 z M73.412 5.32 l0 0.08 l0.04 -0.04 z M67.33200000000001 5.16 c0 0.06 0.04 0.14 0.04 0.2 l0.04 -0.1 s-0.02 -0.08 -0.04 -0.14 z M70.852 5.24 c-0.02 0 -0.04 0.02 -0.04 0.02 s0.02 0.02 0.04 0.02 s0.02 -0.02 0.02 -0.02 s0 -0.02 -0.02 -0.02 z M73.032 5.119999999999999 c-0.06 0.02 -0.08 0.08 -0.1 0.14 c0.12 0 0.1 -0.06 0.1 -0.14 z M73.412 5.24 l0 0.02 l0.04 0 z M73.412 5.119999999999999 c-0.02 0 -0.02 0.02 -0.02 0.02 c0 0.02 0 0.02 0.02 0.02 s0.02 0 0.02 -0.02 c0 0 0 -0.02 -0.02 -0.02 z M69.232 5.039999999999999 c-0.02 0.06 0.1 0.08 0.1 0.08 c0.04 -0.06 0.24 0.02 0.22 -0.08 l-0.32 0 z M70.492 5.08 l-0.04 0 c0 0.02 0 0.04 0.02 0.04 c0 0 0.02 -0.02 0.02 -0.04 z M68.11200000000001 5 l0 0.04 l0.08 0 l0 -0.04 l-0.08 0 z M68.492 4.960000000000001 c-0.06 0 -0.14 0.06 -0.16 0.08 l0.16 0 l0 -0.08 z M69.992 5 l0 0.04 l0.12 0 z"></path></g><g id="SvgjsG1015" featureKey="inlineSymbolFeature-0" transform="matrix(0.8550570730682157,0,0,0.8550570730682157,165.32796796031002,-4.710508857767757)" fill="#fff4e1"><path xmlns="http://www.w3.org/2000/svg" fill-rule="evenodd" clip-rule="evenodd" d="M50.459,95.503c-2.519,0-4.975-0.259-7.383-0.655l2.064-5.143  c1.744,0.236,3.511,0.399,5.319,0.399c2.501,0,4.94-0.261,7.313-0.703l-5.998-6.497h-8.514h-1.8h-1.8v-5.398h-5.899  c-0.623,1.07-1.771,1.8-3.099,1.8c-1.988,0-3.601-1.612-3.601-3.601s1.612-3.6,3.601-3.6c1.329,0,2.477,0.728,3.099,1.8h5.899v-1.8  v-3.601h3.6H61.26v0.77l4.416,4.784c0.315-0.09,0.641-0.153,0.983-0.153c1.988,0,3.6,1.612,3.6,3.601c0,1.987-1.611,3.598-3.6,3.598  s-3.599-1.61-3.599-3.598c0-0.296,0.044-0.579,0.11-0.854l-4.197-4.547H43.261v7.2H54.06v0.768l7.725,8.366  c6.576-1.96,12.414-5.601,17.071-10.395l-5.483-5.939H72.06V55.081l-5.435-5.883c-1.503,1.309-3.101,2.702-4.651,4.053  c-0.299,0.263-0.893,0.779-0.893,0.779l-1.621,0.024v0.051h-7.699c-0.623,1.072-1.771,1.801-3.1,1.801c-1.988,0-3.6-1.612-3.6-3.601  s1.612-3.599,3.6-3.599c1.329,0,2.477,0.728,3.1,1.8h7.699v0.393l10.799-9.623V27.107h-7.198v7.7  c1.07,0.623,1.798,1.771,1.798,3.099c0,1.988-1.61,3.601-3.599,3.601c-1.987,0-3.6-1.612-3.6-3.601c0-1.329,0.728-2.477,1.8-3.099  v-7.7v-1.8v-1.8h10.799v-7.183c-1.426-0.825-2.89-1.593-4.421-2.238c-0.573,0.264-1.206,0.422-1.879,0.422  c-2.484,0-4.499-2.015-4.499-4.5c0-2.484,2.015-4.499,4.499-4.499c2.243,0,4.087,1.644,4.428,3.788  c15.918,6.93,27.07,22.741,27.07,41.209C95.457,75.357,75.312,95.503,50.459,95.503z M81.058,52.306  c-1.988,0-3.599-1.61-3.599-3.599c0-1.329,0.729-2.477,1.799-3.101V30.708h1.8h1.801h1.87c-2.753-4.731-6.471-8.829-10.869-12.054  v26.453h-2.542c-0.584,0.508-1.25,1.09-1.978,1.723l6.525,7.069l-0.271,0.207h0.064v5.4h2.3c0.622-1.072,1.77-1.8,3.099-1.8  c1.988,0,3.601,1.612,3.601,3.601c0,1.987-1.612,3.6-3.601,3.6c-1.329,0-2.477-0.729-3.099-1.8h-2.3v6.168l5.598,6.063  c5.489-6.791,8.802-15.415,8.802-24.831c0-5.783-1.266-11.257-3.498-16.199h-3.702v11.298c1.072,0.625,1.8,1.772,1.8,3.101  C84.658,50.695,83.046,52.306,81.058,52.306z M50.459,10.908c-1.214,0-2.412,0.076-3.598,0.183v11.386l4.416,4.784  c0.314-0.09,0.64-0.153,0.982-0.153c1.988,0,3.601,1.612,3.601,3.601c0,1.988-1.612,3.6-3.601,3.6s-3.599-1.612-3.599-3.6  c0-0.295,0.044-0.579,0.111-0.853l-2.535-2.748h-1.918l-6.35,5.536l4.86,5.263h0.431v0.468l0.018,0.02l-0.018,0.016v22.897H61.76  c0.622-1.073,1.77-1.801,3.099-1.801c1.988,0,3.601,1.612,3.601,3.601s-1.612,3.599-3.601,3.599c-1.329,0-2.477-0.729-3.099-1.799  H43.261h-1.8h-1.8V39.782L23.152,21.899c-1,0.953-1.942,1.963-2.839,3.015L35.63,41.507h0.431v0.467l0.018,0.02l-0.018,0.016v21.097  v3.599h-3.599h-9h-1.798h-1.8v-8.999h-8.327c2.744,14.895,13.823,26.857,28.229,30.896l-2.025,5.049  C19.088,88.158,5.464,70.936,5.464,50.507c0-24.852,20.146-44.997,44.996-44.997c2.447,0,4.831,0.248,7.172,0.624l-2.062,5.142  C53.893,11.06,52.196,10.908,50.459,10.908z M18.068,27.79c-4.534,6.425-7.206,14.251-7.206,22.717c0,1.214,0.063,2.412,0.171,3.599  h12.428v1.801v1.8v5.4h9V43.382l-5.627-6.095l-5.231,7.245c0.031,0.188,0.06,0.378,0.06,0.575c0,1.988-1.612,3.6-3.6,3.6  s-3.6-1.612-3.6-3.6s1.612-3.6,3.6-3.6c0.401,0,0.779,0.081,1.139,0.202l5.142-7.12L18.068,27.79z M43.261,11.594  c-6.497,1.195-12.418,3.998-17.389,7.942l9.656,10.461l7.733-6.742V11.594z"></path></g><g id="SvgjsG1016" featureKey="nameRightFeature-0" transform="matrix(2.0186519080988155,0,0,2.0186519080988155,242.4572301167357,13.91606737612357)" fill="#fff4e1"><path d="M12.158 13.3 c0 -2.52 0.22 -2.4 0.48 -3.58 l0 0.02 c0.02 0 0.1 -0.6 0.36 -0.8 c-0.02 0 -0.02 -0.02 -0.02 -0.02 c0 -0.12 0.32 -0.42 0.32 -0.68 c0.56 -0.68 0.32 -0.62 0.82 -1.12 c-0.02 0 -0.02 -0.02 -0.02 -0.04 c0 -0.06 0.76 -0.7 0.88 -0.88 c0 0.02 0.02 0.02 0.02 0.02 c0.1 0 0.48 -0.44 0.62 -0.52 c0.18 0 0.2 -0.38 0.66 -0.38 c0.1 0 0.64 -0.46 0.86 -0.46 c0.66 -0.1 -0.2 -0.36 2.42 -0.36 c1.02 0 1.86 0.5 1.96 0.5 c0.02 0 0.02 -0.02 0.02 -0.02 c0 0.3 0.84 0.44 0.86 0.5 c0.98 0 0.18 -0.56 1.4 -0.56 c0.1 0 0.26 0.06 0.26 0.3 c0 1.32 0.1 1.94 0.1 2.38 c0 0.02 -0.02 0.08 -0.04 0.16 c0 0.02 0.04 0.2 0.04 0.26 c0 1.1 -0.1 0.98 -0.18 1.24 l-0.4 0 l-0.12 -0.12 s-0.16 -0.32 -0.24 -0.44 c-0.04 -0.14 -0.44 -0.64 -0.44 -0.7 c0 -0.38 -0.34 -0.26 -0.34 -0.7 c-0.54 -0.54 -0.42 -0.66 -0.78 -0.86 c-0.04 0 -0.2 -0.32 -0.3 -0.32 c-0.18 -0.06 -0.58 -0.54 -0.74 -0.54 c0.02 0.02 0.02 0.02 0.02 0.04 c-0.06 0 -0.62 -0.44 -1.26 -0.44 c-0.14 0 -0.1 0.14 -0.2 0.14 c-0.38 0 -0.3 0 -0.54 -0.14 c-0.92 0 -1.12 0.42 -1.3 0.42 c-0.3 0 -0.54 0.44 -0.74 0.56 c-0.26 0.96 -0.56 0.36 -0.56 1.1 c0 0.6 -0.24 0.84 -0.26 0.86 l0 0.44 l-0.04 0.04 c0 0.32 -0.14 1.74 -0.14 2.22 l-0.02 0.08 c0 0.22 -0.08 1.34 -0.08 1.54 c0 0.08 0 0.62 0.04 0.74 l0 0.08 c0 1.44 0.06 1.78 0.12 2.86 c0 -0.02 0 0.64 0.16 0.9 c0.06 0.54 0.32 0.72 0.32 1.02 c0.06 0.14 -0.04 0.22 0.72 0.96 c-0.02 0 -0.02 0 -0.02 0.02 c0 0.04 0.56 0.18 0.78 0.4 c0.04 0.04 0.6 0.22 1.42 0.22 c0.88 0 1.22 0.14 1.78 -0.42 c0.52 0 0.28 -0.34 0.56 -0.58 c0 -0.18 0.44 -0.78 0.44 -2.32 c0 -0.04 -0.06 -1.2 -0.1 -1.18 c0.04 0 -0.5 -0.1 -0.8 -0.1 c-0.1 0 -0.98 0.02 -1.06 0.02 c0 0.02 -0.02 0.02 -0.02 0.02 c-0.08 0 -0.22 -0.06 -0.22 -0.34 c0 -0.38 2.08 -0.38 3.18 -0.38 c0.06 0 0.1 0 0.2 0.04 c0.92 0 1.04 -0.04 1.26 -0.04 c0.04 0 0.12 0.04 0.18 0.04 l0.86 0 s0.4 -0.08 0.7 -0.08 c0.68 0 0.46 0.14 0.58 0.28 c0 0.36 -0.02 0.32 -0.14 0.38 l0.04 0.06 l-1.28 0 c-0.26 1.02 -0.16 1.22 -0.52 2.22 c-0.1 0.06 -0.08 0.48 -0.56 0.94 c0 0.04 -0.62 0.44 -0.66 0.58 c-0.3 0.3 -0.3 0.34 -0.66 0.44 c-0.06 -0.06 -0.28 0.3 -0.4 0.3 c-0.14 0 -0.7 0.28 -0.82 0.28 c0.22 0 -1.62 0.38 -2.56 0.38 c-0.08 0 -0.16 -0.02 -0.18 -0.06 c-0.16 0.06 -0.26 0.04 -0.32 0.04 l0.04 0 s-1.18 -0.2 -1.38 -0.2 c0 0.02 0.02 0.02 0.02 0.04 l-0.02 0 c-0.04 0 -0.52 -0.36 -0.74 -0.36 c-0.04 0.02 -0.08 0.02 -0.1 0.02 c-0.32 0 -0.4 -0.44 -0.68 -0.44 c-0.34 -0.1 -0.2 -0.1 -0.48 -0.32 c0 -0.02 -0.48 -0.16 -0.66 -0.58 c-0.44 -0.14 -1.24 -1.72 -1.44 -1.92 l0.02 -0.02 c0 -0.08 -0.24 -0.26 -0.24 -0.42 c0.06 -0.12 -0.3 -0.54 -0.3 -0.82 l0.02 0.02 c0.14 0.12 -0.22 -0.26 -0.22 -0.92 c0 0 0 0.02 0.02 0.02 c0.14 0.12 -0.22 -0.2 -0.22 -0.96 z M18.838 20.04 c0 0 -0.02 0.02 -0.02 0.04 l0.04 0 c0 -0.02 0 -0.04 -0.02 -0.04 z M18.637999999999998 19.92 l-0.08 0.08 l0.08 0 l0 -0.08 z M21.038 19.54 c-0.02 0 -0.04 0.02 -0.04 0.04 s0.02 0.04 0.04 0.04 s0.02 -0.02 0.02 -0.04 s0 -0.04 -0.02 -0.04 z M15.378 18.86 l0 0.08 l0.04 0 z M25.218 14.98 c0.02 0.04 0.06 0.04 0.1 0.04 c0.08 0 0.1 0.02 0.18 -0.04 l-0.28 0 z M20.137999999999998 14.940000000000001 c-0.02 0 -0.04 0.02 -0.04 0.04 s0.02 0.04 0.04 0.04 c0 0 0.02 -0.02 0.02 -0.04 s-0.02 -0.04 -0.02 -0.04 z M20.878 14.940000000000001 l-0.04 0.04 l0.08 0 z M21.538 14.9 c0 0 -0.04 0.06 -0.08 0.08 c0.02 0 0.04 0.02 0.16 -0.04 c-0.02 -0.02 -0.04 -0.04 -0.08 -0.04 z M25.538 14.940000000000001 c-0.02 0 -0.04 0.02 -0.04 0.04 s0.02 0.04 0.04 0.04 s0.02 -0.02 0.02 -0.04 s0 -0.04 -0.02 -0.04 z M25.838 14.98 c0 -0.02 -0.02 -0.02 -0.06 -0.02 c-0.02 0 -0.04 0 -0.04 0.02 s0.02 0.04 0.04 0.04 c0.04 0 0.06 -0.02 0.06 -0.04 z M19.997999999999998 14.879999999999999 c0.02 0.02 0.02 0.02 0.08 0.02 c-0.06 -0.02 -0.08 -0.02 -0.08 -0.02 z M12.558 14.66 l0 0.08 l0.04 -0.06 z M26.438 14.559999999999999 c-0.06 0 -0.18 0.04 -0.18 0.06 c0.06 0 0.18 0.04 0.18 -0.06 z M13.418 8.98 c0 -0.02 -0.02 -0.02 -0.04 -0.02 s-0.04 0 -0.04 0.02 s0.02 0.04 0.04 0.04 s0.04 -0.02 0.04 -0.04 z M14.677999999999999 6.9 c0 0.04 0 0.04 0.02 0.06 l-0.02 0 c0.04 0 0.14 -0.1 0.18 -0.14 c0 -0.02 -0.02 -0.02 -0.04 -0.02 c-0.06 0 -0.12 0.04 -0.14 0.1 z M15.418 6.08 l0 0.08 c0.02 0 0.02 -0.02 0.02 -0.04 s0 -0.04 -0.02 -0.04 z M21.258 5.84 c0 0.06 0 0.08 0.02 0.08 c0 0 0.02 -0.02 0.04 -0.02 c0 0 0.02 0.02 0.02 0.04 c0 0 -0.04 -0.08 -0.08 -0.14 l0 0.04 z M23.098 5.4399999999999995 c-0.02 0 -0.04 0.02 -0.04 0.02 c0 0.02 0.02 0.02 0.04 0.02 s0.02 0 0.02 -0.02 c0 0 0 -0.02 -0.02 -0.02 z M23.838 5.34 c0.04 0.02 0.06 0.04 0.1 0.04 c-0.02 -0.06 -0.06 -0.04 -0.1 -0.04 z M23.778 5.300000000000001 c-0.02 0 -0.04 0.02 -0.04 0.02 s0.02 0.02 0.04 0.02 s0.02 -0.02 0.02 -0.02 s0 -0.02 -0.02 -0.02 z M18.118 5.140000000000001 l-0.04 0 c0 0.02 0 0.04 0.02 0.04 c0 0 0.02 -0.02 0.02 -0.04 z M17.578 4.9 c0 0.16 0.02 0.24 0.14 0.24 c0.04 0 0.14 -0.08 0.14 -0.08 c-0.14 -0.16 -0.18 -0.1 -0.28 -0.16 z M17.298000000000002 4.98 c-0.08 0 -0.06 0.1 -0.06 0.16 c0.02 0 0.04 -0.1 0.06 -0.16 z M20.718 4.960000000000001 c0 0 -0.02 0 0.04 0.06 c0 -0.02 0.02 -0.04 0.02 -0.06 l-0.06 0 z M18.918 4.800000000000001 l0 0.16 c0.02 0 0.1 -0.06 0.1 -0.06 c0 -0.12 -0.06 -0.1 -0.1 -0.1 z M20.137999999999998 4.9 l-0.1 0.04 l0.1 0 l0 -0.04 z M20.478 4.9 c-0.02 0 -0.02 0.02 -0.02 0.02 c0 0.02 0 0.02 0.02 0.02 s0.02 0 0.02 -0.02 c0 0 0 -0.02 -0.02 -0.02 z M18.637999999999998 4.74 c-0.02 0 -0.04 0.02 -0.04 0.04 c0 0 0.02 0.02 0.04 0.02 l0.02 -0.02 c0 -0.02 -0.02 -0.04 -0.02 -0.04 z M30.336 19.68 c0.1 -0.28 0.16 -0.34 0.38 -0.34 c0.66 0 0.8 0.06 1.28 0.06 c0.18 0 0.26 -0.16 0.34 -0.26 l-0.04 -3.08 c0 -0.04 0.04 -0.1 0.04 -0.14 c0 0.02 -0.04 -0.28 -0.04 -0.36 c0 -0.02 -0.02 -0.4 0.04 -0.58 c0 -0.02 -0.04 -0.08 -0.04 -0.12 l0 -1.42 c0.04 -0.04 0.04 -0.1 0.04 -0.14 c0 -0.12 -0.04 -0.18 -0.04 -0.28 c0 0 -0.06 -4.8 -0.06 -6.36 l0.04 -0.08 l0 -0.94 c-0.14 -0.2 -0.6 -0.06 -0.66 -0.16 l-0.12 0.04 l0 0.02 c-0.04 0 -0.16 -0.06 -0.38 -0.06 c-0.04 0 -0.24 0.04 -0.28 0.08 c-0.32 0 -0.54 0.06 -0.54 -0.36 c0 -0.16 0.1 -0.38 0.76 -0.38 c0.08 0 0.26 0.04 0.38 0.04 c0.08 0 1.12 -0.04 1.14 -0.04 c0.14 0 0.38 0.06 0.46 0.06 c0.08 0.02 1.12 -0.08 1.6 -0.08 c0.06 0 0.04 0.18 0.18 0.18 c0 0 0.02 0 0.02 -0.02 s-0.02 -0.06 -0.02 -0.1 c0.22 0 0.44 -0.06 0.76 -0.12 c0.02 0.02 0.1 0.04 0.08 0.06 c0.02 0 0.06 -0.04 0.06 -0.08 c0.02 0 0.12 0.02 0.16 0.06 c0.1 -0.02 0.36 -0.08 0.38 -0.08 c0.78 0 0.82 0.36 0.82 0.56 c0 0.1 -0.14 0.3 -0.24 0.3 c-0.4 0 -1.16 -0.1 -1.34 -0.1 c-0.16 0 -0.24 0.26 -0.26 0.38 l0.02 6.7 c0 0.1 -0.02 0.38 -0.02 0.42 c0 0.02 0.02 -0.02 0.02 0.3 c0 0.7 -0.02 0.98 -0.02 1.36 c0 0.54 0.02 0.48 0.02 0.62 l0 2.32 c0 0.1 -0.06 1.68 0.24 1.74 c0.04 0 0.76 0.02 1.1 -0.02 l0.04 -0.04 l0.36 0 c0.22 0.1 0.26 0.3 0.26 0.38 c0 0.1 -0.16 0.34 -0.22 0.34 c-0.94 0 -2.38 0.06 -2.58 0.06 c0 0 -0.6 -0.04 -0.9 -0.04 c-0.88 0 -2 0.06 -2.64 0.06 c-0.52 0 -0.58 -0.16 -0.58 -0.36 z M30.755999999999997 19.92 c0 -0.02 -0.02 -0.02 -0.04 -0.02 s-0.04 0 -0.04 0.02 s0.02 0.04 0.04 0.04 s0.04 -0.02 0.04 -0.04 z M30.875999999999998 19.88 c0.08 0 0.12 0.04 0.2 0.04 c0.04 0 0.1 0 0.16 -0.04 c-0.14 0 -0.18 -0.14 -0.24 -0.16 c-0.02 0 -0.12 0 -0.12 0.12 l0 0.04 z M31.276 19.88 c-0.02 0 -0.04 0.02 -0.04 0.04 s0.02 0.04 0.04 0.04 c0 0 0.02 -0.02 0.02 -0.04 s-0.02 -0.04 -0.02 -0.04 z M31.776 19.84 l0.04 0.04 c0.1 0 0.12 0 0.16 -0.04 l-0.04 -0.02 c-0.18 0 -0.12 0 -0.16 0.02 z M36.076 19.68 c-0.12 0.04 -0.1 0.08 -0.1 0.2 c0.1 -0.04 0.08 -0.1 0.12 -0.2 l-0.02 0 z M36.756 19.68 c-0.14 0 -0.14 0.14 -0.16 0.2 l0.24 0 c0 -0.14 -0.04 -0.2 -0.08 -0.2 z M35.256 19.82 l-0.06 0.02 c0 0.02 0 0.02 0.02 0.02 z M35.495999999999995 19.84 l-0.04 -0.02 z M36.995999999999995 19.64 l0 0.12 c0.06 0.02 0.1 -0.08 0.1 -0.12 l-0.1 0 z M30.636 19.52 c-0.14 0 -0.14 0.14 -0.14 0.2 c0.08 -0.06 0.2 -0.04 0.22 -0.08 c0 -0.02 0.02 -0.12 -0.08 -0.12 z M32.135999999999996 19.66 l0.04 0.06 l0 -0.06 l-0.04 0 z M30.956 19.56 l0 0.04 l0.04 -0.04 l-0.04 0 z M36.556 19.52 c0 0.02 -0.02 0.02 -0.02 0.04 s0.02 0.02 0.06 0.04 l0.04 -0.04 l-0.04 -0.08 c-0.02 0 -0.04 0.02 -0.04 0.04 z M36.876 19.56 c0.02 0.04 0.06 0.04 0.1 0.04 c0 -0.02 -0.02 -0.06 -0.02 -0.1 z M32.556 19.3 c-0.02 0.02 -0.02 0.02 -0.02 0.04 s0.06 0.02 0.1 0.02 l0 -0.06 l-0.08 0 z M34.916 6.4 c-0.02 0 -0.04 0 -0.04 0.02 l0.04 0 l0.02 0 c0 -0.02 0 -0.02 -0.02 -0.02 z M35.936 5.32 c-0.02 0 -0.04 0.02 -0.04 0.04 s0.02 0.04 0.04 0.04 s0.02 -0.02 0.02 -0.04 s0 -0.04 -0.02 -0.04 z M30.436 5.140000000000001 c-0.02 0 -0.04 0.02 -0.04 0.04 c0 0 0.02 0.02 0.04 0.02 s0.02 -0.02 0.02 -0.02 c0 -0.02 0 -0.04 -0.02 -0.04 z M31.575999999999997 5.039999999999999 c-0.02 0 -0.04 0.02 -0.04 0.04 c0 0 0.02 0.02 0.04 0.02 l0 -0.06 z M31.855999999999998 5.039999999999999 c0 0.02 -0.02 0.02 -0.02 0.02 c0 0.02 0.02 0.02 0.06 0.04 l0 -0.06 l-0.04 0 z M30.595999999999997 5.02 c-0.08 0 -0.06 0.02 -0.06 0.06 c0.04 0 0.08 0 0.1 -0.04 z M44.574 20.06 l-2.06 -0.06 l-0.04 0.02 l0.08 -0.12 c-0.02 -0.02 -0.04 -0.04 -0.06 -0.04 c-0.04 0 -0.08 0.14 -0.14 0.2 l-1.18 0 c-0.08 -0.14 -0.2 -0.22 -0.2 -0.32 c0 -0.06 0.04 -0.14 0.04 -0.18 c0.08 -0.12 -0.12 -0.24 1.14 -0.24 c0.12 0 0.26 0.04 0.4 0.04 c0.2 0 0.4 -0.08 0.44 -0.42 c0 -0.68 -0.02 -1.28 -0.02 -1.98 c0 -0.36 0.02 -0.84 0.02 -1.24 c0 -0.86 0 -1.66 -0.06 -2.28 c0 -0.42 0.06 -1.48 0.06 -3.5 c0 -0.08 -0.02 -0.24 -0.02 -0.32 c0 -0.18 0.02 -0.2 0.02 -0.44 c0 -0.18 -0.04 -0.38 -0.04 -0.56 c0 -0.14 0.02 -0.24 0.04 -0.32 c0 -0.02 -0.02 -0.12 -0.02 -0.22 s0 -0.14 0.02 -0.22 l0 -2.22 l-0.12 -0.08 l-1.06 0 c-0.06 0.04 -0.18 0.04 -0.3 0.04 c-0.08 0 -0.22 0.02 -0.22 -0.02 c0 -0.02 -0.32 0.06 -0.32 -0.36 c0.12 -0.32 0.08 -0.28 0.32 -0.4 c2.46 0 2.24 0.04 2.9 0.04 c0.24 0 1.92 -0.04 2.38 -0.04 l0.12 0.04 l1.22 0 c0.18 0.06 0.18 0.18 0.24 0.32 c0 0.18 0.02 0.32 -0.24 0.38 c-0.24 0 -0.74 -0.04 -1.24 -0.04 c-0.78 0 -0.58 0.16 -0.72 0.44 l0 5.5 c0 0.06 -0.04 0.42 -0.04 0.48 c0 0.04 0.04 0.1 0.04 0.14 l0 1.16 c0 0.02 0.04 0.16 0.04 0.2 l-0.04 0.08 l0 3.38 c0 0.06 0.04 0.14 0.04 0.16 s-0.02 0.06 -0.04 0.14 l0 1.34 l-0.04 0.1 c0 0.56 0.06 0.62 0.32 0.72 c0.32 0 0.92 0.04 1.5 0.04 c0.74 0 1.44 -0.06 1.6 -0.28 c-0.04 0 0.44 -0.02 0.58 -0.22 c0.08 0.02 0.26 -0.36 0.56 -0.36 c0.52 -0.62 -0.1 0.1 0.78 -0.78 c-0.02 0 -0.04 0 -0.04 -0.02 c0 -0.06 0.42 -0.3 0.42 -0.52 c-0.04 0 0.56 -1 0.56 -1.18 c0 -0.62 0.36 -0.96 0.52 -1.04 c0.36 0.02 0.58 -0.28 0.58 0.78 c0 0.76 -0.1 1.76 -0.18 1.74 c0 0.04 0.02 0.1 0.06 0.16 c0 0.02 -0.08 0.54 -0.08 1.76 c0 0.48 -0.16 0.32 -0.3 0.62 c-1.12 0 -1.12 -0.06 -1.62 -0.06 c-0.24 0 -0.6 0.06 -0.7 0.06 l-1.34 -0.04 c-0.28 0 -0.62 -0.02 -0.78 -0.02 c0.02 0 -0.36 0.04 -0.58 0.04 c-0.1 0 -0.16 -0.02 -0.2 -0.08 c-0.02 0 -0.38 0.08 -0.42 0.1 c0 0 -0.02 -0.04 -0.2 -0.04 c-0.1 0 -0.38 0.04 -0.64 0.04 c-0.14 0 -0.16 -0.04 -0.28 -0.04 c-0.04 0 -0.78 0.08 -1.04 0.08 c-0.06 0 -0.36 -0.04 -0.42 -0.04 z M41.373999999999995 19.72 c-0.04 0 -0.04 0.24 -0.04 0.28 l0.04 0 l0 -0.28 z M42.034 19.72 c0 0.04 0.08 0.2 0.16 0.28 c0.04 -0.04 0.08 -0.22 0.1 -0.2 c0 -0.02 -0.12 -0.08 -0.22 -0.08 l-0.04 0 z M41.95399999999999 19.92 c-0.02 0 -0.02 0.02 -0.02 0.04 s0 0.04 0.02 0.04 s0.02 -0.02 0.02 -0.04 s0 -0.04 -0.02 -0.04 z M47.574 19.86 l0 0.04 l0.04 -0.04 l-0.04 0 z M47.994 19.8 c0 0.06 0.02 0.06 0.04 0.1 c0.1 0 0.08 -0.06 0.12 -0.14 c-0.06 0 -0.12 0 -0.16 0.04 z M48.233999999999995 19.8 l0 0.1 c0.08 0 0.08 -0.04 0.08 -0.1 l-0.08 0 z M48.534 19.8 l0 0.06 l0.04 0 l0 -0.06 l-0.04 0 z M47.053999999999995 19.8 l0 0.04 l0.04 0.02 z M41.174 19.72 c-0.04 0.02 -0.06 0.02 -0.06 0.02 c0 0.04 0.08 0 0.08 0.1 z M43.013999999999996 19.72 c-0.04 0.02 -0.1 0.02 -0.12 0.04 c0.08 0 0.12 -0.02 0.12 -0.04 z M49.913999999999994 19.68 c0 -0.02 0 -0.02 -0.02 -0.02 l0 0.06 c0.02 0 0.02 -0.02 0.02 -0.04 z M49.373999999999995 19.56 c-0.06 0 -0.04 0.04 -0.08 0.08 c0.08 0 0.08 -0.06 0.08 -0.08 z M50.233999999999995 19.52 c0.02 0.02 0.02 0.1 0.08 0.12 c0 -0.1 0 -0.12 -0.04 -0.16 z M41.193999999999996 19.52 l0.1 0.04 l0.04 -0.04 l-0.04 -0.04 c-0.08 0 -0.08 0 -0.1 0.04 z M53.013999999999996 17.36 c-0.02 0 -0.04 0.02 -0.04 0.02 c0 0.02 0.02 0.02 0.04 0.02 s0.02 0 0.02 -0.02 c0 0 0 -0.02 -0.02 -0.02 z M45.373999999999995 16.32 l0 0.1 l0.14 0 c0 -0.04 -0.06 -0.1 -0.1 -0.1 l-0.04 0 z M53.013999999999996 16.34 c-0.02 0 -0.04 0.02 -0.04 0.04 s0.02 0.04 0.04 0.04 s0.02 -0.02 0.02 -0.04 s0 -0.04 -0.02 -0.04 z M53.074 15.32 c0 0.1 0 0.2 0.02 0.28 l0.08 0 l0 -0.28 l-0.1 0 z M52.754 15.26 c0 0.02 0.02 0.08 0.04 0.1 c0.04 0 0.1 -0.02 0.1 -0.04 c0 -0.06 -0.02 -0.08 -0.08 -0.08 c-0.02 0 -0.04 0 -0.06 0.02 z M43.13399999999999 9.14 l0 0.04 l0.04 0 l0 -0.04 l-0.04 0 z M43.13399999999999 7.119999999999999 c0 -0.02 -0.02 -0.02 -0.02 -0.02 c-0.02 0 -0.02 0 -0.02 0.02 s0 0.02 0.02 0.02 c0 0 0.02 0 0.02 -0.02 z M41.733999999999995 5.4 l0 0.04 l0.08 0 c-0.06 -0.04 -0.08 -0.02 -0.08 -0.04 z M41.214 5.16 c-0.02 0 -0.02 0.16 -0.02 0.2 l0.02 -0.08 l0.14 0 c0 -0.08 -0.08 -0.12 -0.14 -0.12 z M41.614 5.18 c0.04 0.08 0.04 0.1 0.1 0.1 c0 -0.1 -0.06 -0.1 -0.1 -0.1 z M44.63399999999999 5.18 l0 0.04 l0.14 0 l0 -0.04 l-0.14 0 z M46.634 5.18 c0.02 0.04 0.06 0.06 0.08 0.06 s0.04 -0.02 0.06 -0.02 z M47.574 5.119999999999999 c0 0.08 0.4 0.1 0.42 0.1 c-0.06 -0.14 -0.16 -0.08 -0.26 -0.14 c-0.04 0 -0.12 0.04 -0.16 0.04 z M42.45399999999999 5.16 c0 0.04 0.02 0.02 0.12 0.02 l0 -0.06 s-0.08 0.02 -0.12 0.04 z M44.153999999999996 5.16 c-0.02 0 -0.04 0 -0.04 0.02 s0.02 0.04 0.04 0.04 s0.02 -0.02 0.02 -0.04 s0 -0.02 -0.02 -0.02 z M45.153999999999996 5.16 c0 0 -0.02 0 -0.02 0.02 s0.02 0.04 0.02 0.04 s0.02 -0.02 0.02 -0.04 s-0.02 -0.02 -0.02 -0.02 z M46.934 5.18 c0 -0.02 -0.02 -0.02 -0.04 -0.02 s-0.04 0 -0.04 0.02 s0.02 0.04 0.04 0.04 s0.04 -0.02 0.04 -0.04 z M60.512 20.06 l-2.06 -0.06 l-0.04 0.02 l0.08 -0.12 c-0.02 -0.02 -0.04 -0.04 -0.06 -0.04 c-0.04 0 -0.08 0.14 -0.14 0.2 l-1.18 0 c-0.08 -0.14 -0.2 -0.22 -0.2 -0.32 c0 -0.06 0.04 -0.14 0.04 -0.18 c0.08 -0.12 -0.12 -0.24 1.14 -0.24 c0.12 0 0.26 0.04 0.4 0.04 c0.2 0 0.4 -0.08 0.44 -0.42 c0 -0.68 -0.02 -1.28 -0.02 -1.98 c0 -0.36 0.02 -0.84 0.02 -1.24 c0 -0.86 0 -1.66 -0.06 -2.28 c0 -0.42 0.06 -1.48 0.06 -3.5 c0 -0.08 -0.02 -0.24 -0.02 -0.32 c0 -0.18 0.02 -0.2 0.02 -0.44 c0 -0.18 -0.04 -0.38 -0.04 -0.56 c0 -0.14 0.02 -0.24 0.04 -0.32 c0 -0.02 -0.02 -0.12 -0.02 -0.22 s0 -0.14 0.02 -0.22 l0 -2.22 l-0.12 -0.08 l-1.06 0 c-0.06 0.04 -0.18 0.04 -0.3 0.04 c-0.08 0 -0.22 0.02 -0.22 -0.02 c0 -0.02 -0.32 0.06 -0.32 -0.36 c0.12 -0.32 0.08 -0.28 0.32 -0.4 c2.46 0 2.24 0.04 2.9 0.04 c0.24 0 1.92 -0.04 2.38 -0.04 l0.12 0.04 l1.22 0 c0.18 0.06 0.18 0.18 0.24 0.32 c0 0.18 0.02 0.32 -0.24 0.38 c-0.24 0 -0.74 -0.04 -1.24 -0.04 c-0.78 0 -0.58 0.16 -0.72 0.44 l0 5.5 c0 0.06 -0.04 0.42 -0.04 0.48 c0 0.04 0.04 0.1 0.04 0.14 l0 1.16 c0 0.02 0.04 0.16 0.04 0.2 l-0.04 0.08 l0 3.38 c0 0.06 0.04 0.14 0.04 0.16 s-0.02 0.06 -0.04 0.14 l0 1.34 l-0.04 0.1 c0 0.56 0.06 0.62 0.32 0.72 c0.32 0 0.92 0.04 1.5 0.04 c0.74 0 1.44 -0.06 1.6 -0.28 c-0.04 0 0.44 -0.02 0.58 -0.22 c0.08 0.02 0.26 -0.36 0.56 -0.36 c0.52 -0.62 -0.1 0.1 0.78 -0.78 c-0.02 0 -0.04 0 -0.04 -0.02 c0 -0.06 0.42 -0.3 0.42 -0.52 c-0.04 0 0.56 -1 0.56 -1.18 c0 -0.62 0.36 -0.96 0.52 -1.04 c0.36 0.02 0.58 -0.28 0.58 0.78 c0 0.76 -0.1 1.76 -0.18 1.74 c0 0.04 0.02 0.1 0.06 0.16 c0 0.02 -0.08 0.54 -0.08 1.76 c0 0.48 -0.16 0.32 -0.3 0.62 c-1.12 0 -1.12 -0.06 -1.62 -0.06 c-0.24 0 -0.6 0.06 -0.7 0.06 l-1.34 -0.04 c-0.28 0 -0.62 -0.02 -0.78 -0.02 c0.02 0 -0.36 0.04 -0.58 0.04 c-0.1 0 -0.16 -0.02 -0.2 -0.08 c-0.02 0 -0.38 0.08 -0.42 0.1 c0 0 -0.02 -0.04 -0.2 -0.04 c-0.1 0 -0.38 0.04 -0.64 0.04 c-0.14 0 -0.16 -0.04 -0.28 -0.04 c-0.04 0 -0.78 0.08 -1.04 0.08 c-0.06 0 -0.36 -0.04 -0.42 -0.04 z M57.312 19.72 c-0.04 0 -0.04 0.24 -0.04 0.28 l0.04 0 l0 -0.28 z M57.972 19.72 c0 0.04 0.08 0.2 0.16 0.28 c0.04 -0.04 0.08 -0.22 0.1 -0.2 c0 -0.02 -0.12 -0.08 -0.22 -0.08 l-0.04 0 z M57.891999999999996 19.92 c-0.02 0 -0.02 0.02 -0.02 0.04 s0 0.04 0.02 0.04 s0.02 -0.02 0.02 -0.04 s0 -0.04 -0.02 -0.04 z M63.512 19.86 l0 0.04 l0.04 -0.04 l-0.04 0 z M63.932 19.8 c0 0.06 0.02 0.06 0.04 0.1 c0.1 0 0.08 -0.06 0.12 -0.14 c-0.06 0 -0.12 0 -0.16 0.04 z M64.172 19.8 l0 0.1 c0.08 0 0.08 -0.04 0.08 -0.1 l-0.08 0 z M64.472 19.8 l0 0.06 l0.04 0 l0 -0.06 l-0.04 0 z M62.992 19.8 l0 0.04 l0.04 0.02 z M57.112 19.72 c-0.04 0.02 -0.06 0.02 -0.06 0.02 c0 0.04 0.08 0 0.08 0.1 z M58.952 19.72 c-0.04 0.02 -0.1 0.02 -0.12 0.04 c0.08 0 0.12 -0.02 0.12 -0.04 z M65.852 19.68 c0 -0.02 0 -0.02 -0.02 -0.02 l0 0.06 c0.02 0 0.02 -0.02 0.02 -0.04 z M65.312 19.56 c-0.06 0 -0.04 0.04 -0.08 0.08 c0.08 0 0.08 -0.06 0.08 -0.08 z M66.172 19.52 c0.02 0.02 0.02 0.1 0.08 0.12 c0 -0.1 0 -0.12 -0.04 -0.16 z M57.132 19.52 l0.1 0.04 l0.04 -0.04 l-0.04 -0.04 c-0.08 0 -0.08 0 -0.1 0.04 z M68.952 17.36 c-0.02 0 -0.04 0.02 -0.04 0.02 c0 0.02 0.02 0.02 0.04 0.02 s0.02 0 0.02 -0.02 c0 0 0 -0.02 -0.02 -0.02 z M61.312 16.32 l0 0.1 l0.14 0 c0 -0.04 -0.06 -0.1 -0.1 -0.1 l-0.04 0 z M68.952 16.34 c-0.02 0 -0.04 0.02 -0.04 0.04 s0.02 0.04 0.04 0.04 s0.02 -0.02 0.02 -0.04 s0 -0.04 -0.02 -0.04 z M69.012 15.32 c0 0.1 0 0.2 0.02 0.28 l0.08 0 l0 -0.28 l-0.1 0 z M68.692 15.26 c0 0.02 0.02 0.08 0.04 0.1 c0.04 0 0.1 -0.02 0.1 -0.04 c0 -0.06 -0.02 -0.08 -0.08 -0.08 c-0.02 0 -0.04 0 -0.06 0.02 z M59.071999999999996 9.14 l0 0.04 l0.04 0 l0 -0.04 l-0.04 0 z M59.071999999999996 7.119999999999999 c0 -0.02 -0.02 -0.02 -0.02 -0.02 c-0.02 0 -0.02 0 -0.02 0.02 s0 0.02 0.02 0.02 c0 0 0.02 0 0.02 -0.02 z M57.672 5.4 l0 0.04 l0.08 0 c-0.06 -0.04 -0.08 -0.02 -0.08 -0.04 z M57.152 5.16 c-0.02 0 -0.02 0.16 -0.02 0.2 l0.02 -0.08 l0.14 0 c0 -0.08 -0.08 -0.12 -0.14 -0.12 z M57.552 5.18 c0.04 0.08 0.04 0.1 0.1 0.1 c0 -0.1 -0.06 -0.1 -0.1 -0.1 z M60.571999999999996 5.18 l0 0.04 l0.14 0 l0 -0.04 l-0.14 0 z M62.572 5.18 c0.02 0.04 0.06 0.06 0.08 0.06 s0.04 -0.02 0.06 -0.02 z M63.512 5.119999999999999 c0 0.08 0.4 0.1 0.42 0.1 c-0.06 -0.14 -0.16 -0.08 -0.26 -0.14 c-0.04 0 -0.12 0.04 -0.16 0.04 z M58.391999999999996 5.16 c0 0.04 0.02 0.02 0.12 0.02 l0 -0.06 s-0.08 0.02 -0.12 0.04 z M60.092 5.16 c-0.02 0 -0.04 0 -0.04 0.02 s0.02 0.04 0.04 0.04 s0.02 -0.02 0.02 -0.04 s0 -0.02 -0.02 -0.02 z M61.092 5.16 c0 0 -0.02 0 -0.02 0.02 s0.02 0.04 0.02 0.04 s0.02 -0.02 0.02 -0.04 s-0.02 -0.02 -0.02 -0.02 z M62.872 5.18 c0 -0.02 -0.02 -0.02 -0.04 -0.02 s-0.04 0 -0.04 0.02 s0.02 0.04 0.04 0.04 s0.04 -0.02 0.04 -0.04 z M72.85 19.68 c0.1 -0.28 0.16 -0.34 0.38 -0.34 c0.66 0 0.8 0.06 1.28 0.06 c0.18 0 0.26 -0.16 0.34 -0.26 l-0.04 -3.08 c0 -0.04 0.04 -0.1 0.04 -0.14 c0 0.02 -0.04 -0.28 -0.04 -0.36 c0 -0.02 -0.02 -0.4 0.04 -0.58 c0 -0.02 -0.04 -0.08 -0.04 -0.12 l0 -1.42 c0.04 -0.04 0.04 -0.1 0.04 -0.14 c0 -0.12 -0.04 -0.18 -0.04 -0.28 c0 0 -0.06 -4.8 -0.06 -6.36 l0.04 -0.08 l0 -0.94 c-0.14 -0.2 -0.6 -0.06 -0.66 -0.16 l-0.12 0.04 l0 0.02 c-0.04 0 -0.16 -0.06 -0.38 -0.06 c-0.04 0 -0.24 0.04 -0.28 0.08 c-0.32 0 -0.54 0.06 -0.54 -0.36 c0 -0.16 0.1 -0.38 0.76 -0.38 c0.08 0 0.26 0.04 0.38 0.04 c0.08 0 1.12 -0.04 1.14 -0.04 c0.14 0 0.38 0.06 0.46 0.06 c0.08 0.02 1.12 -0.08 1.6 -0.08 c0.06 0 0.04 0.18 0.18 0.18 c0 0 0.02 0 0.02 -0.02 s-0.02 -0.06 -0.02 -0.1 c0.22 0 0.44 -0.06 0.76 -0.12 c0.02 0.02 0.1 0.04 0.08 0.06 c0.02 0 0.06 -0.04 0.06 -0.08 c0.02 0 0.12 0.02 0.16 0.06 c0.1 -0.02 0.36 -0.08 0.38 -0.08 c0.78 0 0.82 0.36 0.82 0.56 c0 0.1 -0.14 0.3 -0.24 0.3 c-0.4 0 -1.16 -0.1 -1.34 -0.1 c-0.16 0 -0.24 0.26 -0.26 0.38 l0.02 6.7 c0 0.1 -0.02 0.38 -0.02 0.42 c0 0.02 0.02 -0.02 0.02 0.3 c0 0.7 -0.02 0.98 -0.02 1.36 c0 0.54 0.02 0.48 0.02 0.62 l0 2.32 c0 0.1 -0.06 1.68 0.24 1.74 c0.04 0 0.76 0.02 1.1 -0.02 l0.04 -0.04 l0.36 0 c0.22 0.1 0.26 0.3 0.26 0.38 c0 0.1 -0.16 0.34 -0.22 0.34 c-0.94 0 -2.38 0.06 -2.58 0.06 c0 0 -0.6 -0.04 -0.9 -0.04 c-0.88 0 -2 0.06 -2.64 0.06 c-0.52 0 -0.58 -0.16 -0.58 -0.36 z M73.27 19.92 c0 -0.02 -0.02 -0.02 -0.04 -0.02 s-0.04 0 -0.04 0.02 s0.02 0.04 0.04 0.04 s0.04 -0.02 0.04 -0.04 z M73.39 19.88 c0.08 0 0.12 0.04 0.2 0.04 c0.04 0 0.1 0 0.16 -0.04 c-0.14 0 -0.18 -0.14 -0.24 -0.16 c-0.02 0 -0.12 0 -0.12 0.12 l0 0.04 z M73.79 19.88 c-0.02 0 -0.04 0.02 -0.04 0.04 s0.02 0.04 0.04 0.04 c0 0 0.02 -0.02 0.02 -0.04 s-0.02 -0.04 -0.02 -0.04 z M74.29 19.84 l0.04 0.04 c0.1 0 0.12 0 0.16 -0.04 l-0.04 -0.02 c-0.18 0 -0.12 0 -0.16 0.02 z M78.59 19.68 c-0.12 0.04 -0.1 0.08 -0.1 0.2 c0.1 -0.04 0.08 -0.1 0.12 -0.2 l-0.02 0 z M79.27 19.68 c-0.14 0 -0.14 0.14 -0.16 0.2 l0.24 0 c0 -0.14 -0.04 -0.2 -0.08 -0.2 z M77.77 19.82 l-0.06 0.02 c0 0.02 0 0.02 0.02 0.02 z M78.01 19.84 l-0.04 -0.02 z M79.51 19.64 l0 0.12 c0.06 0.02 0.1 -0.08 0.1 -0.12 l-0.1 0 z M73.15 19.52 c-0.14 0 -0.14 0.14 -0.14 0.2 c0.08 -0.06 0.2 -0.04 0.22 -0.08 c0 -0.02 0.02 -0.12 -0.08 -0.12 z M74.65 19.66 l0.04 0.06 l0 -0.06 l-0.04 0 z M73.47 19.56 l0 0.04 l0.04 -0.04 l-0.04 0 z M79.07000000000001 19.52 c0 0.02 -0.02 0.02 -0.02 0.04 s0.02 0.02 0.06 0.04 l0.04 -0.04 l-0.04 -0.08 c-0.02 0 -0.04 0.02 -0.04 0.04 z M79.39 19.56 c0.02 0.04 0.06 0.04 0.1 0.04 c0 -0.02 -0.02 -0.06 -0.02 -0.1 z M75.07000000000001 19.3 c-0.02 0.02 -0.02 0.02 -0.02 0.04 s0.06 0.02 0.1 0.02 l0 -0.06 l-0.08 0 z M77.43 6.4 c-0.02 0 -0.04 0 -0.04 0.02 l0.04 0 l0.02 0 c0 -0.02 0 -0.02 -0.02 -0.02 z M78.45 5.32 c-0.02 0 -0.04 0.02 -0.04 0.04 s0.02 0.04 0.04 0.04 s0.02 -0.02 0.02 -0.04 s0 -0.04 -0.02 -0.04 z M72.95 5.140000000000001 c-0.02 0 -0.04 0.02 -0.04 0.04 c0 0 0.02 0.02 0.04 0.02 s0.02 -0.02 0.02 -0.02 c0 -0.02 0 -0.04 -0.02 -0.04 z M74.09 5.039999999999999 c-0.02 0 -0.04 0.02 -0.04 0.04 c0 0 0.02 0.02 0.04 0.02 l0 -0.06 z M74.37 5.039999999999999 c0 0.02 -0.02 0.02 -0.02 0.02 c0 0.02 0.02 0.02 0.06 0.04 l0 -0.06 l-0.04 0 z M73.11 5.02 c-0.08 0 -0.06 0.02 -0.06 0.06 c0.04 0 0.08 0 0.1 -0.04 z M85.608 19.42 c-0.18 0 -0.28 0.04 -0.4 0.06 c-0.18 0 -0.14 0 -0.16 -0.02 l-0.06 0.02 c0 0.06 0.02 0.06 0.06 0.08 c0 -0.02 -0.06 0.04 -0.1 0.12 l0.02 0 c0 0.02 -0.64 0.52 -0.74 0.52 c-0.46 0 -0.46 -0.54 -0.46 -0.62 c0 -0.04 0 -0.04 0.02 -0.1 c0 -2.24 -0.1 -1.9 -0.1 -3.24 c0 0 0.02 -0.02 0.02 -0.04 c0 -0.06 -0.04 -0.16 -0.04 -0.26 c0 -0.18 0.08 -0.3 0.6 -0.3 c0.06 0 0.14 0.06 0.32 0.38 c0 0.1 0.36 0.4 0.4 0.58 c-0.02 0.02 -0.04 0.04 -0.04 0.06 c0 0.08 0.3 0.2 0.3 0.32 c0 0.02 -0.02 0.04 -0.02 0.04 c0 0.12 0.2 0.22 0.2 0.28 c0.24 0.44 0.26 0.42 0.58 0.74 c0.1 0 0.84 1.32 1.4 1.32 c0.72 0.06 0.86 0.32 1.62 0.32 c0.42 0 0.36 -0.02 0.5 -0.1 c-0.04 0.04 -0.02 0.04 -0.04 0.04 c0 0 0.14 -0.2 0.8 -0.2 c0.3 0 0.88 -0.56 1 -0.64 c0.04 -0.04 0.24 -0.12 0.24 -0.16 c0 -0.12 0.42 -0.7 0.48 -0.76 c-0.02 -0.04 -0.02 -0.08 -0.02 -0.1 c0 -0.3 0.32 0.16 0.32 -1.7 c-0.02 -0.06 -0.08 -0.7 -0.22 -0.82 c-0.06 0 -0.06 -0.46 -0.54 -0.78 c0 -0.02 0.02 -0.12 0.02 -0.16 c-0.78 -0.04 -0.38 -0.44 -0.9 -0.44 c-0.98 0 -0.2 -0.3 -1.26 -0.3 c-0.1 -0.1 -0.98 -0.08 -1.18 -0.2 c-0.04 0 -0.18 0.04 -0.22 0.04 c-0.24 0 -0.04 -0.2 -0.58 -0.2 c-1.82 -0.1 -0.84 -0.44 -1.46 -0.44 l0 -0.04 c0.06 0 0.14 -0.02 0.2 0.04 c0 0 0.1 -0.04 0.1 -0.06 c0 0 -0.04 -0.04 -0.04 -0.06 l-0.62 0 c-0.2 -0.18 -0.18 -0.3 -0.34 -0.34 c0 -0.02 -0.22 0.02 -0.56 -0.44 c0 -0.14 -0.44 -0.66 -0.54 -0.74 c-0.18 -0.94 -0.4 -1.5 -0.4 -2.22 c0.04 -0.22 0 -0.5 0.08 -0.64 l0 0.02 c0.02 0 0.1 -0.68 0.16 -0.64 c-0.02 0 -0.04 -0.02 -0.04 -0.04 c0 -0.16 0.42 -0.6 0.42 -0.76 c-0.02 -0.02 -0.02 -0.04 -0.02 -0.04 c0 -0.14 0.32 -0.28 0.32 -0.34 s0.26 -0.48 0.38 -0.56 c-0.02 0.02 -0.02 0.04 -0.02 0.04 c-0.02 0 0.98 -0.66 1 -0.68 c1.22 -0.2 0.16 -0.54 1.52 -0.54 l1.96 0 c0.04 0 0.46 0 0.66 0.16 c0.82 0.04 0.68 0.52 1.04 0.52 c0.66 0 0.48 -0.04 0.68 -0.24 c-0.08 -0.1 0.54 -0.02 0.6 -0.28 l0.26 0 c0.04 0 0.2 0.16 0.22 0.2 c0.06 2.48 0.18 2.42 0.18 3.72 c0 0.1 -0.18 0.16 -0.26 0.32 l-0.28 0 l0 -0.08 c-0.06 0 -0.48 -0.28 -0.48 -0.5 l0 0.02 c-0.02 0 -0.16 -0.5 -0.38 -0.58 l0.02 0 c0 -0.06 -0.26 -0.26 -0.26 -0.4 c-0.3 -0.44 -0.26 -0.42 -0.5 -0.66 l0.02 0 c0 -0.02 -0.5 -0.32 -0.5 -0.46 c0 -0.3 -0.74 -0.66 -0.9 -0.82 c0.06 -0.12 -0.52 -0.28 -1.1 -0.28 c-0.02 0 -0.04 0.02 -0.06 0.02 c-0.2 0 -0.12 -0.34 -0.18 -0.34 c-0.04 0.04 -0.06 0.04 -0.08 0.08 c-0.02 0 -0.1 -0.02 -0.16 -0.04 c-0.12 0.44 -0.32 0.2 -0.38 0.32 c-0.12 -0.06 -0.04 -0.12 -0.12 -0.14 c-0.42 0.2 -0.3 0.18 -1.22 0.64 c-0.6 1.18 -0.28 -0.28 -0.94 1.52 l0 0.88 l0 -0.02 c0.02 0 0.1 0.78 0.28 0.88 c0.04 0.06 0.3 0.26 0.38 0.42 c0.14 0 0.32 0.52 0.9 0.52 c0.24 0.26 1.18 0.2 2.14 0.44 c0.28 0.08 1.74 0.08 2.08 0.48 l-0.02 0 c0 0.04 0.48 0.08 0.56 0.14 c0 -0.04 0.96 0.56 0.96 0.68 c0 0.02 0 0.02 -0.02 0.02 c0.34 0 0.68 0.76 0.82 0.86 c0.1 0.72 0.38 0.5 0.38 1.06 c0.24 0.76 0.2 0.94 0.2 1.88 c-0.06 0.06 -0.1 0.76 -0.2 0.8 c0 1.02 -0.52 0.96 -0.52 1.4 l-0.26 0.24 c0 0.04 -0.02 0.12 -0.02 0.12 c-0.4 0.36 -0.26 0.42 -0.44 0.5 c-0.06 0 -0.16 0.3 -0.5 0.4 c-0.38 0.58 -0.54 0.12 -0.94 0.7 c-1.8 0 0.04 0.44 -1.96 0.44 c-2.28 0 -1.48 -0.06 -2.22 -0.24 c-0.02 0 -0.02 0.02 -0.04 0.02 c-0.12 0 -0.3 -0.16 -0.46 -0.16 c0 -0.02 -0.3 -0.06 -0.3 -0.1 c0 0.02 0.02 0.02 0.02 0.02 c0 -0.02 -0.28 -0.42 -0.5 -0.42 c-0.04 0 -0.08 0.02 -0.12 0.04 z M89.408 20.14 c-0.02 0 -0.02 0.02 -0.02 0.04 c0 0 0 0.02 0.02 0.02 s0.02 -0.02 0.02 -0.02 c0 -0.02 0 -0.04 -0.02 -0.04 z M87.908 20.1 c-0.02 0 -0.02 0.02 -0.02 0.02 c0 0.02 0 0.02 0.02 0.02 s0.02 0 0.02 -0.02 c0 0 0 -0.02 -0.02 -0.02 z M89.808 20.1 c-0.02 0 -0.04 0.02 -0.04 0.04 s0.02 0.04 0.04 0.04 s0.02 -0.02 0.02 -0.04 s0 -0.04 -0.02 -0.04 z M89.36800000000001 20.06 c-0.02 0 -0.04 0.02 -0.04 0.04 s0.02 0.04 0.04 0.04 s0.02 -0.02 0.02 -0.04 s0 -0.04 -0.02 -0.04 z M89.808 20.02 c-0.04 0 -0.06 0 -0.06 0.02 l0.02 0.02 l0.04 0 l0 -0.04 z M88.34800000000001 20.02 c-0.02 0 -0.02 0 -0.02 0.02 c0 0 0 0.02 0.02 0.02 s0.02 -0.02 0.02 -0.02 c0 -0.02 0 -0.02 -0.02 -0.02 z M89.808 19.88 l0 0.1 c0.04 -0.02 0.08 -0.06 0.1 -0.1 l-0.1 0 z M90.34800000000001 19.82 c-0.18 0 -0.18 0.06 -0.18 0.12 c0.02 0 0.06 -0.02 0.1 -0.04 c0.02 0 0.08 0.02 0.12 0.04 l0.08 -0.04 s0 -0.08 -0.12 -0.08 z M87.968 19.84 l0 0.04 l0.08 0 l0 -0.04 l-0.08 0 z M88.968 19.84 c-0.02 0 -0.02 0.02 -0.02 0.04 c0 0 0 0.02 0.02 0.02 s0.02 -0.02 0.02 -0.02 c0 -0.02 0 -0.04 -0.02 -0.04 z M89.528 19.84 c-0.02 0 -0.04 0.02 -0.04 0.04 c0 0 0.02 0.02 0.04 0.02 s0.02 -0.02 0.02 -0.02 c0 -0.02 0 -0.04 -0.02 -0.04 z M87.688 19.72 c-0.02 0 -0.04 0 -0.04 0.02 l0.04 0 l0.02 0 c0 -0.02 0 -0.02 -0.02 -0.02 z M87.06800000000001 19.66 c-0.02 0 -0.04 0 -0.06 0.02 z M87.00800000000001 19.58 c-0.02 0 -0.04 0.02 -0.04 0.04 s0.02 0.04 0.04 0.04 s0.02 -0.02 0.02 -0.04 s0 -0.04 -0.02 -0.04 z M87.06800000000001 19.56 c-0.02 0 -0.02 0.02 -0.02 0.04 c0 0 0 0.02 0.02 0.02 s0.02 -0.02 0.02 -0.02 c0 -0.02 0 -0.04 -0.02 -0.04 z M84.20800000000001 19.52 c-0.02 0 -0.04 0.02 -0.04 0.04 c0 0 0.02 0.02 0.04 0.02 l0.02 -0.02 c0 -0.02 -0.02 -0.04 -0.02 -0.04 z M87.00800000000001 19.52 c-0.02 0 -0.04 0.02 -0.04 0.04 c0 0 0.02 0.02 0.04 0.02 s0.02 -0.02 0.02 -0.02 c0 -0.02 0 -0.04 -0.02 -0.04 z M83.92800000000001 19.46 c-0.02 0 -0.04 0.02 -0.04 0.02 c0 0.02 0.02 0.04 0.04 0.04 c0 0 0.02 -0.02 0.02 -0.04 z M87.168 19.48 l-0.04 0 c0 0.02 0 0.04 0.02 0.04 c0 0 0.02 -0.02 0.02 -0.04 z M91.08800000000001 19.46 c-0.02 0 -0.02 0.02 -0.02 0.02 l0.04 0 c0 0.02 0 -0.02 -0.02 -0.02 z M83.92800000000001 19.12 l0 -0.08 l0 0.08 z M92.00800000000001 19.08 c-0.02 0 -0.04 0.02 -0.04 0.04 l0.06 0 c0 -0.02 -0.02 -0.04 -0.02 -0.04 z M92.28800000000001 18.84 l0 0.04 l0.02 0 z M92.22800000000001 18.78 c-0.02 0 -0.04 0.02 -0.04 0.04 c0 0 0.02 0.02 0.04 0.02 s0.02 -0.02 0.02 -0.02 c0 -0.02 0 -0.04 -0.02 -0.04 z M92.34800000000001 18.8 l0.04 -0.02 z M92.468 18.68 l0 0 l-0.04 0.04 c0.02 -0.02 0.02 -0.04 0.04 -0.04 z M83.988 18.66 c-0.02 0 -0.04 0 -0.04 0.02 c0 0 0.04 0 0.04 -0.02 l0 0 z M83.92800000000001 18.46 l0 0.12 l0.02 0 c0 -0.02 0 -0.1 -0.02 -0.12 z M93.08800000000001 18.02 c-0.02 0 -0.02 0.02 -0.02 0.02 s0 0.02 0.02 0.02 s0.02 -0.02 0.02 -0.02 s0 -0.02 -0.02 -0.02 z M92.468 16.38 l0.04 0.02 l0.04 -0.02 l-0.08 0 z M83.92800000000001 16.06 l-0.04 0 c0 0.02 0 0.04 0.02 0.04 c0 0 0.02 -0.02 0.02 -0.04 z M93.888 15.719999999999999 l0 -0.02 c-0.02 0 -0.02 0 -0.02 0.02 s0 0.04 0.02 0.04 l0 -0.04 z M85.488 12.34 c-0.02 0 -0.04 0.02 -0.04 0.04 s0.02 0.04 0.04 0.04 s0.02 -0.02 0.02 -0.04 s0 -0.04 -0.02 -0.04 z M84.668 11.48 c-0.02 0 -0.04 0.02 -0.04 0.04 c0 0 0.02 0.02 0.04 0.02 l0.02 -0.02 c0 -0.02 -0.02 -0.04 -0.02 -0.04 z M91.08800000000001 11.28 c-0.02 0 -0.02 0.02 -0.02 0.04 c0 0 0 0.02 0.02 0.02 s0.02 -0.02 0.02 -0.02 c0 -0.02 0 -0.04 -0.02 -0.04 z M84.42800000000001 11.2 l0 0.04 l0.04 -0.04 l-0.04 0 z M86.328 11.02 c0 0 -0.02 0 -0.02 0.02 l0.04 0 c0 -0.02 -0.02 -0.02 -0.02 -0.02 z M88.308 10.76 c-0.04 0 -0.14 0.04 -0.14 0.06 s0.02 0.02 0.02 0.02 c0.04 0 0.08 -0.04 0.12 -0.08 z M84.048 10.18 c-0.02 0 -0.04 -0.02 -0.04 0.1 c0 0.02 0.02 0.06 0.02 0.06 c0.02 0 0.04 -0.04 0.04 -0.06 c0 -0.04 -0.02 -0.08 -0.02 -0.1 z M83.988 9.98 c-0.02 0 -0.04 0.02 -0.04 0.04 s0.02 0.04 0.04 0.04 l0 -0.08 z M92.548 6.460000000000001 c-0.02 0 -0.04 0.02 -0.04 0.04 c0 0 0.02 0.02 0.04 0.02 s0.02 -0.02 0.02 -0.02 c0 -0.02 0 -0.04 -0.02 -0.04 z M92.828 6.460000000000001 c-0.02 0 -0.02 0.02 -0.02 0.04 c0 0 0 0.02 0.02 0.02 s0.02 -0.02 0.02 -0.02 c0 -0.02 0 -0.04 -0.02 -0.04 z M92.908 6.460000000000001 c-0.02 0 -0.04 0.02 -0.04 0.04 c0 0 0.02 0.02 0.04 0.02 l0.02 -0.02 c0 -0.02 -0.02 -0.04 -0.02 -0.04 z M88.42800000000001 6.02 l0 -0.22 c0.02 -0.02 0.06 -0.04 0.08 -0.06 l0.04 0.04 c0 0.06 -0.08 0.16 -0.08 0.28 z M92.828 5.9399999999999995 c-0.02 0 -0.02 0.02 -0.02 0.04 c0 0 0 0.02 0.02 0.02 s0.02 -0.02 0.02 -0.02 c0 -0.02 0 -0.04 -0.02 -0.04 z M86.268 5.84 c-0.1 0.02 -0.1 0.1 -0.1 0.1 c0.02 -0.02 0.1 -0.06 0.1 -0.08 l0 -0.02 z M85.78800000000001 5.74 c0 0.04 0.06 0.06 0.1 0.06 c-0.02 -0.06 -0.1 -0.06 -0.12 -0.06 l0.02 0 z M92.748 5.779999999999999 c0.02 0.02 0.04 0.02 0.06 0.02 c0.08 0 0.1 -0.06 0.1 -0.12 z M86.108 5.619999999999999 c-0.06 0 -0.04 0.06 -0.04 0.12 l0.04 0 l0 -0.12 z M90.06800000000001 5.4399999999999995 c-0.06 0.1 -0.04 0.18 -0.04 0.26 c0.08 -0.02 0.1 -0.12 0.1 -0.22 c-0.02 -0.02 -0.02 -0.04 -0.06 -0.04 z M86.108 5.52 c-0.02 0 -0.04 0 -0.04 0.02 l0.04 0 l0.02 0 c0 -0.02 0 -0.02 -0.02 -0.02 z M92.548 5.48 c0 -0.02 -0.02 -0.02 -0.06 -0.02 c-0.02 0 -0.04 0 -0.04 0.02 s0.02 0.04 0.04 0.04 c0.04 0 0.06 -0.02 0.06 -0.04 z M92.62800000000001 5.42 c-0.02 0 -0.04 0.02 -0.04 0.02 l0.02 0 l0.02 0 l0 -0.02 z M90.64800000000001 5.42 l-0.02 -0.02 z M89.408 5.4 c0 -0.02 -0.02 -0.02 -0.02 -0.02 s-0.02 0 -0.02 0.02 s0.02 0.02 0.02 0.02 s0.02 0 0.02 -0.02 z M92.12800000000001 5.4 c0 -0.02 -0.02 -0.02 -0.02 -0.02 c-0.02 0 -0.02 0 -0.02 0.02 s0 0.02 0.02 0.02 c0 0 0.02 0 0.02 -0.02 z M92.388 5.359999999999999 c-0.02 0 -0.04 0.02 -0.04 0.04 c0 0 0.02 0.02 0.04 0.02 s0.02 -0.02 0.02 -0.02 c0 -0.02 0 -0.04 -0.02 -0.04 z M92.828 5.32 l0 0.08 l0.04 -0.04 z M86.748 5.16 c0 0.06 0.04 0.14 0.04 0.2 l0.04 -0.1 s-0.02 -0.08 -0.04 -0.14 z M90.268 5.24 c-0.02 0 -0.04 0.02 -0.04 0.02 s0.02 0.02 0.04 0.02 s0.02 -0.02 0.02 -0.02 s0 -0.02 -0.02 -0.02 z M92.44800000000001 5.119999999999999 c-0.06 0.02 -0.08 0.08 -0.1 0.14 c0.12 0 0.1 -0.06 0.1 -0.14 z M92.828 5.24 l0 0.02 l0.04 0 z M92.828 5.119999999999999 c-0.02 0 -0.02 0.02 -0.02 0.02 c0 0.02 0 0.02 0.02 0.02 s0.02 0 0.02 -0.02 c0 0 0 -0.02 -0.02 -0.02 z M88.64800000000001 5.039999999999999 c-0.02 0.06 0.1 0.08 0.1 0.08 c0.04 -0.06 0.24 0.02 0.22 -0.08 l-0.32 0 z M89.908 5.08 l-0.04 0 c0 0.02 0 0.04 0.02 0.04 c0 0 0.02 -0.02 0.02 -0.04 z M87.528 5 l0 0.04 l0.08 0 l0 -0.04 l-0.08 0 z M87.908 4.960000000000001 c-0.06 0 -0.14 0.06 -0.16 0.08 l0.16 0 l0 -0.08 z M89.408 5 l0 0.04 l0.12 0 z"></path></g>
			</g>
		</svg>
	